<svg width="51" height="58" viewBox="0 0 51 58" fill="none" xmlns="http://www.w3.org/2000/svg">
  <path d="M37.0424 0.0991741C36.8544 0.670941 36.5218 1.11967 36.1313 1.32232C35.8782 1.4526 35.8782 1.53221 36.1385 1.63354C36.435 1.75657 36.7676 2.12569 36.9412 2.52376C37.0207 2.71917 37.1147 2.87116 37.1437 2.87116C37.1726 2.87116 37.2883 2.66851 37.3968 2.42967C37.5631 2.07503 37.6716 1.94475 37.9608 1.77105C38.1561 1.64801 38.3152 1.50326 38.3152 1.45983C38.3152 1.40917 38.2139 1.32956 38.0982 1.2789C37.809 1.15586 37.4257 0.699891 37.3028 0.338013C37.1871 -0.00938927 37.1003 -0.0890024 37.0424 0.0991741Z" fill="black" />
  <path d="M42.3575 0.902546C40.8606 1.30061 39.8338 2.65403 39.8338 4.2463C39.8338 4.50685 39.8844 5.07138 39.9422 5.51287C40.0001 5.94712 40.0507 6.54784 40.0507 6.84458V7.38016L40.904 7.3295C41.6561 7.28607 41.8297 7.30055 42.3286 7.43806C42.7914 7.5611 43.0373 7.59005 43.5941 7.5611C44.2088 7.53215 44.3534 7.49596 44.8452 7.26436C45.5683 6.90972 46.06 6.43204 46.3855 5.74447C46.7253 5.02795 46.8266 4.40552 46.7109 3.72519C46.3855 1.65525 44.3968 0.374204 42.3575 0.902546ZM43.6231 2.80602C43.9774 2.90735 44.5053 3.38503 44.6138 3.71795C44.7367 4.09431 44.6572 4.62989 44.433 4.97005C44.216 5.30298 43.84 5.57077 43.652 5.52011C43.5797 5.50563 43.5218 5.52011 43.5218 5.55629C43.5218 5.59248 43.4423 5.62143 43.341 5.62143C43.2398 5.62143 43.1602 5.57801 43.1602 5.52734C43.1602 5.46221 43.1458 5.46221 43.1024 5.52734C42.9578 5.75895 42.2491 5.31022 42.0032 4.81806C41.6344 4.10155 42.0466 3.13171 42.8348 2.84221C43.1892 2.71193 43.2687 2.7047 43.6231 2.80602Z" fill="black" />
  <path d="M42.4732 5.11481C42.4516 5.15099 42.466 5.18718 42.5022 5.18718C42.5456 5.18718 42.5817 5.15099 42.5817 5.11481C42.5817 5.07138 42.5673 5.04243 42.5528 5.04243C42.5311 5.04243 42.4949 5.07138 42.4732 5.11481Z" fill="black" />
  <path d="M24.3585 1.61906C19.658 1.94475 15.5506 3.29094 11.7396 5.75171C9.34599 7.30055 6.90899 9.57314 5.16621 11.8747C2.51227 15.3921 0.769493 19.6044 0.169283 24.0048C0.0101908 25.1628 -0.0548922 27.9855 0.0535795 29.3244C0.444078 34.3473 2.43273 39.3919 5.53502 43.2567C5.93275 43.7561 6.72097 44.6391 7.28503 45.2181C7.84185 45.8043 8.30466 46.3254 8.30466 46.3761C8.30466 46.4268 8.0371 47.4111 7.71891 48.5691C7.3935 49.7271 7.03916 51.0009 6.93069 51.399C6.82222 51.797 6.47511 53.0202 6.17138 54.1131C5.86043 55.2059 5.4844 56.5376 5.33977 57.066C5.18791 57.6088 5.10113 58.0141 5.15175 57.9996C5.39039 57.9055 11.3853 55.481 12.752 54.9237C17.438 53.0202 18.5516 52.5715 19.4194 52.2096L20.3812 51.8188L20.938 51.949C21.6684 52.13 22.9845 52.3543 23.8523 52.4557C24.7056 52.5497 27.4608 52.5497 28.1911 52.4557C28.4876 52.4122 28.7769 52.376 28.8275 52.376C29.0011 52.376 28.9071 52.2313 28.3936 51.7247C27.8079 51.1457 27.0775 50.5811 26.405 50.1831C25.9494 49.9008 24.9876 49.481 24.8213 49.481C24.7273 49.481 23.6643 47.8453 22.3626 45.6813C19.0289 40.1301 17.7345 38.5523 13.6198 35.0421C9.30983 31.3582 6.92345 28.6369 6.45341 26.8637C6.33771 26.4294 6.31601 25.8649 6.42449 26.0313C6.46787 26.0965 6.4968 26.1037 6.4968 26.0531C6.4968 26.0096 6.47511 25.9517 6.43895 25.93C6.37387 25.8938 6.41725 25.2352 6.48957 25.2352C6.51849 25.2352 6.72821 25.503 6.95238 25.8359C7.17656 26.1616 7.70445 26.8709 8.12387 27.4065C10.4596 30.3739 12.159 32.1615 15.3192 34.977C19.0723 38.3207 20.4318 39.9926 23.5847 45.1023C24.7634 47.013 25.6167 48.2796 25.8554 48.4678C26.0217 48.598 26.6725 48.6849 26.6725 48.5763C26.6725 48.5546 26.593 48.3809 26.4918 48.1855C26.1663 47.5269 25.6746 46.2531 25.53 45.6379C25.2769 44.6029 25.2046 43.8213 25.2479 42.4968C25.3203 40.2604 25.8337 38.9431 27.4391 36.8442C27.8947 36.2435 28.9577 35.1289 29.4566 34.7236C29.5796 34.6223 30.0496 34.2243 30.5052 33.8262C32.9205 31.749 33.6003 31.0542 34.4608 29.7587C34.9742 28.9843 35.0393 28.9264 35.4081 28.8757C35.7769 28.825 36.0951 28.9915 36.247 29.3172C36.4061 29.6501 36.3916 29.8383 36.1891 30.2798C35.5889 31.5608 34.2439 33.0807 32.248 34.7092C30.8162 35.8817 29.4928 37.0976 29.0011 37.6983C27.8368 39.1168 27.2077 40.3979 26.9184 41.9467C26.7738 42.7139 26.8172 44.5233 26.998 45.3556C27.374 47.0854 28.3285 49.1191 29.8038 51.3266C30.874 52.9189 32.5734 55.0901 33.3472 55.8428C33.6509 56.1396 33.687 56.154 33.9691 56.1034C34.1354 56.0744 34.2656 56.0238 34.2656 55.9803C34.2656 55.9369 34.0414 55.6402 33.7738 55.3145C32.5734 53.8887 30.8523 51.4569 29.999 49.9877C29.1529 48.5329 28.4587 46.6946 28.2273 45.2905C28.0537 44.2772 28.1044 42.5981 28.3358 41.773C28.8709 39.7899 30.1292 38.147 32.7108 36.0192C35.1767 33.9926 36.717 32.1181 37.3751 30.3594C37.715 29.433 37.7584 29.1145 37.78 27.1097C37.809 25.0832 37.8451 24.8371 38.1778 24.345C38.4092 24.0121 38.6912 23.7153 38.8575 23.6357C38.9805 23.5706 38.9805 23.585 38.8431 23.7081C38.7491 23.7805 38.6767 23.8745 38.6767 23.9035C38.6767 23.9324 38.7563 23.8818 38.8575 23.7877C38.9515 23.7008 39.0166 23.5995 39.0022 23.5706C38.9805 23.5416 39.0094 23.4765 39.0672 23.4331C39.1829 23.339 39.1685 23.2955 39.3854 24.4029C39.5951 25.4379 39.6458 26.357 39.5517 27.4789C39.436 28.8178 39.2914 29.6284 39.0022 30.4969C38.2573 32.7261 36.9629 34.3907 33.7594 37.2134C30.4329 40.1446 29.6374 41.4256 29.6374 43.8574C29.6374 45.4931 29.9918 46.7887 30.9753 48.7935C31.5465 49.9442 32.0021 50.7186 32.5806 51.522L32.8265 51.8622L33.5207 51.6089C36.6447 50.4798 39.3059 49.0251 41.6055 47.1867C42.56 46.4268 44.6716 44.3279 45.3514 43.4738C48.0198 40.1084 49.7626 36.381 50.5652 32.328C50.9774 30.2581 51.0064 29.9251 50.9991 27.2979C50.9991 25.1411 50.9774 24.7069 50.84 23.7877C50.3772 20.719 49.4805 18.0266 48.0342 15.3198C46.8989 13.1919 45.496 11.3029 43.7026 9.47181L42.8348 8.58883L41.3958 8.69739C40.6075 8.75529 39.9422 8.8132 39.9278 8.83491C39.9133 8.84938 39.8193 9.96397 39.7253 11.3174C39.4794 14.7987 39.5011 14.6756 39.06 14.8566C38.6189 15.0447 38.4598 14.9506 37.6354 14.0242C33.998 9.94225 29.3048 8.19077 24.5754 9.13889C22.2252 9.61656 19.9762 10.8904 17.9586 12.8952C15.4927 15.3415 14.0609 18.0483 13.5402 21.2546C13.3884 22.181 13.3594 24.7937 13.4968 25.5392C13.5475 25.8142 13.6198 26.2485 13.6632 26.5163C13.8801 27.8263 14.6611 29.6284 15.688 31.2062C16.6353 32.6609 17.5826 33.8334 19.8388 36.3449C21.8347 38.5668 22.6663 39.58 23.5052 40.8321C24.3223 42.048 24.6116 42.6053 24.5465 42.8514C24.4669 43.1626 24.2211 43.4015 23.968 43.4015C23.6787 43.4015 23.469 43.1916 23.0857 42.533C22.7531 41.9467 21.7118 40.4124 21.2273 39.7827C20.439 38.7622 19.5134 37.7634 17.8429 36.1494C15.5144 33.8841 14.4586 32.6609 13.4896 31.0904C12.2024 29.006 11.5154 26.9216 11.378 24.6924C11.3636 24.4101 11.3419 24.1858 11.3346 24.1858C11.284 24.1858 11.2912 23.1363 11.3491 22.3185C11.4431 21.0591 11.6673 19.8577 12.0433 18.6852C12.253 18.0194 12.94 16.4488 13.2727 15.8626C14.1911 14.2486 15.7675 12.3089 16.9318 11.3391C17.6188 10.7673 17.5754 10.6515 16.7438 10.8687C15.4927 11.1944 14.032 12.3234 12.9906 13.7709C12.7665 14.0821 12.3832 14.7335 12.1301 15.2112C11.5371 16.3547 11.2262 16.8035 10.7127 17.2811C10.1125 17.8312 9.3026 18.2075 8.70239 18.2148C8.35528 18.2148 8.34805 18.1135 8.65177 17.5127C9.50508 15.7974 11.002 13.8288 12.6869 12.2076C13.6415 11.2812 14.3863 10.7022 15.7169 9.82645C16.563 9.26916 16.7799 9.08822 17.0403 8.72634C17.5031 8.07496 17.9225 7.99535 18.3564 8.4875C18.5372 8.69739 18.5733 8.79872 18.5733 9.1027C18.5733 9.51524 18.5155 9.65275 18.1684 10.087C17.8502 10.4778 17.8574 10.5357 18.1973 10.2824C21.408 7.82889 24.9731 6.888 28.842 7.46701C32.0383 7.94469 34.9236 9.41391 37.4691 11.8385L38.1633 12.5043L38.1995 12.1931C38.2429 11.8819 38.4092 9.47181 38.5321 7.32226C38.5683 6.68535 38.6189 5.97607 38.6406 5.75171L38.6767 5.34641L38.185 5.03519C35.8131 3.52978 32.5083 2.35729 29.2759 1.86514C27.7066 1.6263 25.6746 1.52498 24.3585 1.61906ZM23.2159 3.96403C23.4112 4.0726 23.5847 4.49961 23.5269 4.76016C23.4762 4.999 23.1147 5.33193 22.905 5.33193C22.6519 5.33193 22.3554 5.12928 22.2397 4.87596C22.095 4.57922 22.1818 4.16668 22.4277 3.99298C22.6085 3.86994 22.999 3.84823 23.2159 3.96403ZM28.5383 4.1884C28.6612 4.31143 28.6467 4.49961 28.5093 4.61541C28.2852 4.80359 28.0031 4.43447 28.1911 4.21011C28.2996 4.07983 28.4225 4.0726 28.5383 4.1884ZM32.1323 4.8253C32.2408 4.9411 32.2552 5.01348 32.1974 5.1727C32.1395 5.33193 32.0889 5.36812 31.8792 5.36812C31.6695 5.36812 31.6188 5.33193 31.561 5.1727C31.5031 5.01348 31.5176 4.9411 31.6261 4.8253C31.6984 4.74569 31.8141 4.68055 31.8792 4.68055C31.9443 4.68055 32.06 4.74569 32.1323 4.8253ZM20.9886 4.89044C21.0609 5.00624 20.9525 5.18718 20.8078 5.18718C20.7066 5.18718 20.6704 5.13652 20.6704 5.00624C20.6704 4.87596 20.7066 4.8253 20.8078 4.8253C20.8874 4.8253 20.9669 4.85425 20.9886 4.89044ZM18.4865 5.63591C18.4721 5.73 18.4142 5.80237 18.3564 5.80237C18.2985 5.80237 18.2407 5.73 18.2262 5.63591C18.2045 5.51287 18.2407 5.47668 18.3564 5.47668C18.4721 5.47668 18.5082 5.51287 18.4865 5.63591ZM34.1354 5.9616C34.2945 6.10635 34.3017 6.33071 34.1426 6.50441C33.9835 6.67812 33.7883 6.67088 33.6581 6.47546C33.5063 6.25834 33.5135 6.15701 33.687 5.98331C33.8606 5.80961 33.9618 5.80237 34.1354 5.9616ZM16.8016 6.27281C16.8595 6.46099 16.7944 6.56231 16.6136 6.56231C16.4545 6.56231 16.3677 6.40309 16.4328 6.23662C16.4907 6.0774 16.751 6.10635 16.8016 6.27281ZM15.1528 6.76497C15.2324 6.81563 15.2685 6.94591 15.2541 7.15579C15.2469 7.31502 14.9214 7.40187 14.7768 7.28607C14.6683 7.19198 14.6249 6.84458 14.719 6.75773C14.784 6.69259 15.0444 6.69259 15.1528 6.76497ZM36.6809 7.13408C36.7532 7.24988 36.6375 7.43806 36.5145 7.41635C36.4495 7.40187 36.3916 7.32226 36.3771 7.22817C36.3554 7.11237 36.3916 7.06894 36.5001 7.06894C36.5796 7.06894 36.6592 7.09789 36.6809 7.13408ZM12.9689 8.40789C12.9689 8.50198 12.9111 8.55988 12.8099 8.57436C12.6869 8.59607 12.6435 8.55988 12.6435 8.45855C12.6435 8.38618 12.6652 8.29933 12.6941 8.27038C12.7882 8.17629 12.9689 8.26314 12.9689 8.40789ZM11.3057 10.0653C11.3057 10.1883 11.2551 10.3041 11.1755 10.3548C11.0671 10.4199 11.0165 10.4055 10.908 10.2679C10.72 10.0363 10.8284 9.7975 11.1105 9.83369C11.2696 9.84817 11.3057 9.89159 11.3057 10.0653ZM28.1911 9.92054C30.7366 10.2607 33.0001 11.274 34.9742 12.9531C35.5889 13.4742 36.7098 14.6684 36.9484 15.0664C37.3172 15.6672 36.8906 16.333 36.1385 16.333C35.8492 16.333 35.7986 16.2968 35.1406 15.6165C34.28 14.7335 33.7738 14.3065 32.8916 13.7203C30.7077 12.2655 28.2924 11.6286 25.8048 11.8457C23.0279 12.0846 21.0031 13.2715 19.1301 15.7685C16.9679 18.6563 16.2593 20.3716 16.1436 22.9988C16.0278 25.5537 16.5268 27.6453 17.6405 29.2521C18.1394 29.983 19.3471 31.1193 20.063 31.5464C20.7283 31.9517 21.6539 32.3425 22.4566 32.5596C22.9411 32.6899 23.2231 32.7116 24.4669 32.7188C25.8265 32.7261 25.9566 32.7116 26.6075 32.5307C28.0827 32.1181 29.2108 31.445 30.281 30.3377C31.5465 29.0277 32.2624 27.667 32.5734 25.9952C32.7397 25.0905 32.6819 23.4692 32.4577 22.7021C31.7201 20.1544 29.7242 18.1352 27.2872 17.4693C26.8027 17.339 26.5207 17.3101 25.5517 17.3101C24.5176 17.3173 24.3151 17.3318 23.686 17.5127C22.124 17.9398 20.8512 18.8227 19.8099 20.1979C19.2097 20.9868 18.8626 21.8118 18.7541 22.6804C18.6963 23.1218 18.5589 23.3245 18.0888 23.6357C17.6549 23.9252 17.2572 23.9397 17.0836 23.6791C17.0258 23.585 16.9896 23.4765 17.0041 23.4475C17.0258 23.4113 17.0764 22.9409 17.1198 22.3981C17.221 21.1967 17.4018 20.4584 17.7851 19.6985C18.7686 17.7588 20.7717 16.1593 22.9483 15.5658C25.3203 14.9217 27.3595 15.0954 29.4566 16.1231C30.9246 16.8396 32.3348 18.1352 33.2098 19.561C34.1282 21.0736 34.6416 23.1942 34.5259 24.9819C34.3379 27.7249 33.3906 29.8166 31.4887 31.7128C31.0042 32.1977 30.4257 32.7116 30.1943 32.8636C28.6612 33.8624 26.9401 34.4052 25.0455 34.4776C20.9163 34.6296 17.3584 32.5958 15.6446 29.1073C14.8274 27.4354 14.5237 26.1182 14.4731 23.9686C14.4369 22.7383 14.4586 22.3619 14.5888 21.4572C15.0588 18.2293 16.375 15.6672 18.7613 13.3656C20.3233 11.8602 21.9649 10.8759 23.8523 10.3041C25.3853 9.84093 26.7015 9.72513 28.1911 9.92054ZM42.4371 11.8095C42.5817 11.9905 42.4949 12.1714 42.2563 12.1714C42.1045 12.1714 42.0321 12.1352 42.0177 12.0411C41.9887 11.8892 42.1189 11.701 42.2563 11.701C42.3069 11.701 42.3865 11.7516 42.4371 11.8095ZM8.11664 12.6853C8.33359 12.9024 8.18173 13.2932 7.87801 13.2932C7.62491 13.2932 7.47304 12.9458 7.62491 12.7215C7.75507 12.5405 7.95755 12.5261 8.11664 12.6853ZM27.5837 12.8156C28.3213 12.9748 28.9215 13.2136 29.1457 13.4452C29.4277 13.7203 29.4277 14.1979 29.1529 14.5236C28.9288 14.7914 28.8564 14.7914 27.8874 14.5019C27.0124 14.2414 25.9783 14.14 25.0961 14.2414C24.3368 14.321 23.5702 14.473 23.2521 14.5888C22.6519 14.8204 22.189 14.5598 22.189 13.9953C22.189 13.6045 22.3698 13.3511 22.7603 13.1992C23.1725 13.0327 24.1777 12.7794 24.72 12.7142C25.3926 12.6274 26.9763 12.6781 27.5837 12.8156ZM31.5899 14.3065C32.3492 14.6901 34.0848 16.2968 34.6344 17.1291C34.8224 17.4042 34.8513 17.5055 34.8224 17.7733C34.7718 18.2075 34.5114 18.4681 34.1065 18.4681C33.8389 18.4681 33.7811 18.4319 33.5496 18.1496C32.7759 17.2015 32.1974 16.608 31.5827 16.1376C30.469 15.2763 30.4329 15.2401 30.4329 14.9C30.4329 14.6611 30.4763 14.5743 30.686 14.3861C30.9825 14.1256 31.1994 14.1038 31.5899 14.3065ZM44.2305 14.3499C44.2594 14.5309 44.0714 14.7046 43.9195 14.6394C43.7605 14.5815 43.7098 14.3934 43.8183 14.2631C43.9412 14.1111 44.2016 14.1617 44.2305 14.3499ZM6.03399 15.3704C6.08461 15.5586 5.93275 15.754 5.73027 15.754C5.57841 15.754 5.46993 15.5441 5.51332 15.3559C5.54948 15.2112 5.60733 15.175 5.77365 15.175C5.94721 15.175 5.99783 15.2112 6.03399 15.3704ZM40.8679 15.9856C41.5187 17.3318 41.9526 18.6925 42.1912 20.2051C42.2997 20.871 42.3214 21.3848 42.3069 23.3317C42.2925 25.38 42.3069 25.7563 42.4299 26.386C42.8421 28.5066 43.7821 30.3015 45.308 31.8938C45.6768 32.2846 45.9588 32.6248 45.9154 32.6465C45.8793 32.6682 45.4165 32.7985 44.8813 32.936C43.8834 33.1893 42.6106 33.4064 41.9526 33.4281C41.5838 33.4354 41.5693 33.4426 41.5693 33.638C41.5693 33.7466 41.6489 34.2532 41.7501 34.7671C41.8513 35.2809 41.9164 35.7948 41.8947 35.9251C41.8441 36.2073 41.5476 36.4679 41.0848 36.6344C39.9856 37.0324 39.342 37.4522 38.4887 38.299C37.8813 38.8997 37.3968 39.58 37.0063 40.3689C36.717 40.9407 36.435 41.7585 36.4928 41.8237C36.5218 41.8454 36.6953 41.8888 36.8761 41.9178L37.216 41.9684L37.3028 41.6862C37.4329 41.2809 38.0621 40.0432 38.3803 39.5728C38.7635 39.0083 39.4288 38.3424 39.935 38.0023C40.2821 37.7707 40.4268 37.72 40.7088 37.72C41.1644 37.72 41.4392 37.9661 41.4392 38.3714C41.4392 38.6392 41.2077 38.9866 41.027 38.9866C40.9836 38.9866 40.7811 39.0734 40.5714 39.1747C39.6602 39.6307 39.3927 40.8756 39.9133 42.2435C40.1664 42.9166 40.2243 43.112 40.1664 43.1626C40.0724 43.264 38.3369 43.2784 37.3679 43.1916C35.3864 43.0106 32.718 42.3882 31.3296 41.773C31.1126 41.6789 30.9391 41.5776 30.9391 41.5559C30.9391 41.4039 31.5682 40.5065 31.6767 40.5065C31.7418 40.5065 31.9515 40.5716 32.1395 40.6512C32.3275 40.7308 32.5083 40.7887 32.5445 40.7815C32.5806 40.767 32.7036 40.5426 32.812 40.2893C33.3616 38.9793 34.0125 38.147 36.1168 36.0554C37.0714 35.1 38.0404 34.0723 38.2573 33.7755C39.0672 32.6609 39.1323 32.5813 39.0889 32.7044C39.06 32.7767 39.0745 32.8346 39.1106 32.8346C39.154 32.8346 39.1829 32.7985 39.1829 32.7478C39.1829 32.6971 39.2046 32.6899 39.248 32.7333C39.277 32.7695 39.3493 33.2038 39.3927 33.7031C39.4433 34.2025 39.4939 34.7092 39.5156 34.825C39.5517 35.0276 39.5301 35.0566 39.1396 35.2447C38.4743 35.5704 37.8379 36.0626 36.9484 36.9239C35.6974 38.1398 34.8513 39.2833 34.374 40.4268C34.0197 41.2664 34.0197 41.3026 34.4102 41.4184C34.9092 41.5704 34.9453 41.5559 35.0827 41.1506C35.5961 39.7031 36.7749 38.0529 38.1199 36.866C38.6623 36.3883 39.6891 35.7224 40.1664 35.5415C40.528 35.404 40.5352 35.3895 40.3834 34.6657C40.217 33.8769 40.0941 32.328 40.1881 32.2339C40.2387 32.1833 40.6943 32.1326 41.3018 32.1036C42.3792 32.053 43.4495 31.9082 43.4495 31.8141C43.4495 31.778 43.2181 31.4523 42.9361 31.0832C42.3648 30.3377 41.685 29.0132 41.3958 28.094C40.9546 26.7117 40.9546 26.661 40.9763 23.6936C40.9908 20.6683 41.0342 20.8782 40.4846 21.0736C39.6891 21.3559 38.6623 22.181 38.0621 23.0278C37.4112 23.9469 37.0641 24.8806 36.9484 26.0386C36.8833 26.6682 36.8544 26.7334 36.6519 26.9143C36.3338 27.2038 35.9866 27.1893 35.6685 26.8709C35.4443 26.6465 35.4226 26.5886 35.4226 26.205C35.4298 25.3438 35.8782 23.8094 36.4061 22.8613C37.1654 21.4934 38.4526 20.3209 39.8265 19.7347C40.1086 19.6116 40.3834 19.5175 40.4484 19.5175C40.5063 19.5175 40.5786 19.4741 40.6003 19.4162C40.6437 19.3004 40.3906 18.3523 40.1881 17.8819L40.0579 17.5634L39.1685 18.0049C37.6788 18.7504 37.1147 19.228 36.3338 20.415C35.8348 21.1677 35.5383 21.3197 35.061 21.0736C34.7935 20.9361 34.6271 20.6249 34.6271 20.2702C34.6271 19.6623 35.6974 18.1858 36.6881 17.4331C37.2811 16.9916 38.3658 16.4199 39.0383 16.1955C39.4288 16.0725 39.5951 15.9639 39.9422 15.6093C40.1809 15.3704 40.3978 15.175 40.4268 15.175C40.4557 15.175 40.6509 15.5441 40.8679 15.9856ZM46.4072 17.4621C46.4939 17.5706 46.559 17.7082 46.559 17.7805C46.559 17.8529 46.4939 17.9904 46.4072 18.099C46.1107 18.4753 45.5466 18.2799 45.5322 17.7878C45.5177 17.2956 46.1034 17.0785 46.4072 17.4621ZM11.1032 18.2293C10.7923 18.9747 10.597 19.2715 10.0981 19.7491C9.42554 20.4078 8.60115 20.8203 7.94309 20.842C7.54536 20.8565 7.47304 20.8348 7.45135 20.7262C7.43689 20.6538 7.48028 20.5308 7.54536 20.4584C7.63214 20.3643 7.63937 20.3209 7.57429 20.2992C7.51643 20.2775 7.50197 20.2196 7.53813 20.1255C7.58875 19.988 7.59598 19.988 7.69722 20.1255C7.7623 20.2123 7.79846 20.2341 7.79846 20.1762C7.79846 20.1183 7.74784 20.0386 7.68999 19.9952C7.59598 19.9228 7.59598 19.8867 7.69722 19.6551C7.81292 19.409 7.84185 19.3945 8.4276 19.2715C9.12905 19.1267 10.0691 18.678 10.7272 18.1858C10.9658 18.0049 11.1828 17.8529 11.2117 17.8529C11.2406 17.8529 11.19 18.0266 11.1032 18.2293ZM26.7955 18.649C28.1116 18.9675 29.3337 19.807 30.1292 20.9433C30.6137 21.6309 31.0837 22.9409 31.0837 23.585C31.0837 24.2943 30.187 24.5476 29.8399 23.9469C29.7748 23.8384 29.6881 23.5271 29.6447 23.2594C29.529 22.608 29.3916 22.2606 29.0011 21.6671C27.8223 19.8577 25.313 19.2787 23.3605 20.3643C22.5651 20.8058 21.7985 21.7178 21.5021 22.5935C21.343 23.0567 21.2779 24.3378 21.3864 24.9095C21.6973 26.5814 23.4112 28.0072 25.2986 28.1664C25.9928 28.2243 26.8027 28.0723 27.4535 27.7539C28.0393 27.4644 28.1188 27.4065 28.6033 26.9143C28.8781 26.6321 29.0083 26.5524 29.1095 26.5886C29.218 26.6321 29.2252 26.6176 29.1457 26.5235C29.0734 26.4294 29.1023 26.3426 29.312 25.9879C29.4494 25.7563 29.5651 25.5319 29.5651 25.4813C29.5651 25.3221 29.7676 25.0036 29.8182 25.0832C29.8399 25.1266 29.811 25.2135 29.7531 25.2786C29.623 25.4089 29.6013 25.5247 29.7097 25.5247C29.7531 25.5247 29.7821 25.474 29.7821 25.4161C29.7821 25.3003 29.8978 25.2642 29.9412 25.3727C29.9556 25.4017 30.0424 25.4523 30.1436 25.4813C30.3244 25.5319 30.3244 25.5319 30.1292 25.4017C29.905 25.2642 29.8978 25.2424 29.9918 25.1049C30.0424 25.0253 30.1075 25.0326 30.3678 25.1556C30.7366 25.3365 30.7655 25.3438 30.6498 25.199C30.5992 25.1411 30.5124 25.0905 30.4618 25.0905C30.404 25.0905 30.3606 25.0615 30.3606 25.0181C30.3606 24.9819 30.4763 25.0036 30.6209 25.0687C30.8595 25.1845 30.874 25.2135 30.8306 25.4523C30.7511 25.8794 30.3678 26.7623 30.1002 27.1315C29.7242 27.6598 29.5 27.8986 29.0228 28.2533C27.2872 29.5705 24.8285 29.7442 22.7459 28.702C22.2252 28.4342 21.408 27.7828 21.0682 27.3486C20.2799 26.3426 19.9328 25.3293 19.9328 24.0048C19.9328 23.0422 20.0919 22.3329 20.4824 21.5151C21.2128 20.0097 22.7965 18.8662 24.5754 18.5549C25.0889 18.4681 26.2387 18.5115 26.7955 18.649ZM4.22613 19.8432C4.45753 20.2051 4.06703 20.5887 3.70546 20.3499C3.51744 20.2268 3.46682 19.9011 3.61868 19.7491C3.77054 19.5972 4.09596 19.6478 4.22613 19.8432ZM10.1559 21.1388C10.127 21.3921 10.0908 21.9638 10.0764 22.4198L10.0474 23.2449L9.8088 23.4475C9.67864 23.5633 9.47616 23.7226 9.36768 23.8094C9.25921 23.8963 9.00611 24.2075 8.81086 24.497C8.60838 24.7937 8.44929 24.9964 8.44929 24.9602C8.44929 24.924 8.36974 24.9023 8.27574 24.9095C8.16726 24.924 8.08049 24.8878 8.05156 24.8154C8.00817 24.7069 7.99371 24.7141 7.91416 24.8589C7.83462 25.0108 7.81292 25.0181 7.73338 24.9168C7.61767 24.772 7.68999 24.4391 7.83462 24.4391C7.97201 24.4391 7.97201 24.5549 7.83462 24.6128C7.71168 24.6562 7.68276 24.8733 7.79846 24.8733C7.84185 24.8733 7.87077 24.8444 7.87077 24.8082C7.87077 24.772 7.92139 24.6852 7.98648 24.62C8.09495 24.5187 8.08772 24.497 7.93586 24.3595L7.77677 24.222L7.6466 24.4101C7.48028 24.6634 7.43689 24.5332 7.58875 24.2364C7.69722 24.0265 7.71891 24.0121 7.82015 24.1134C7.95032 24.2364 8.08772 24.2581 8.08772 24.1496C8.08772 24.1062 8.05879 24.0772 8.0154 24.0772C7.90693 24.0772 7.65383 23.8384 7.65383 23.737C7.65383 23.6864 7.68999 23.6429 7.72615 23.6429C7.76953 23.6429 7.79846 23.585 7.79846 23.5127C7.79123 23.3969 7.79123 23.3969 7.69722 23.5127C7.58152 23.6719 7.5092 23.6791 7.5092 23.5271C7.5092 23.462 7.57429 23.3969 7.65383 23.3752C7.73338 23.3534 7.79846 23.2955 7.79846 23.2521C7.79846 23.2015 7.86354 23.0929 7.94309 23.006C8.09495 22.8468 8.09495 22.8468 7.95032 22.8468C7.87077 22.8468 7.784 22.8106 7.7623 22.7744C7.74061 22.731 7.7623 22.7021 7.82015 22.7021C7.87077 22.7021 8.10941 22.4849 8.34805 22.2171C8.57946 21.9494 8.88318 21.6309 9.02057 21.5079C9.36768 21.2039 10.0619 20.6828 10.1414 20.6828C10.1704 20.6755 10.1776 20.8854 10.1559 21.1388ZM23.7438 22.1375C24.1271 22.5067 24.1126 22.8685 23.6932 23.3245C23.1508 23.918 22.7025 24.0265 22.3771 23.6357C22.0878 23.2955 22.1601 22.8034 22.5578 22.3185C22.9556 21.8336 23.3533 21.7757 23.7438 22.1375ZM47.8462 22.3547C47.9692 22.4777 47.9547 22.7383 47.8245 22.8468C47.7377 22.9192 47.6727 22.9192 47.5353 22.8613C47.246 22.7238 47.3256 22.2678 47.6437 22.2678C47.7088 22.2678 47.7956 22.304 47.8462 22.3547ZM7.58152 22.8179C7.58152 22.8902 7.2778 23.1436 7.24164 23.1074C7.21994 23.0929 7.27056 23.0133 7.34288 22.9337C7.47304 22.7817 7.58152 22.7383 7.58152 22.8179ZM7.79846 22.9192C7.79846 22.9554 7.76953 22.9916 7.72615 22.9916C7.68999 22.9916 7.65383 22.9554 7.65383 22.9192C7.65383 22.8758 7.68999 22.8468 7.72615 22.8468C7.76953 22.8468 7.79846 22.8758 7.79846 22.9192ZM7.68276 23.1653C7.66106 23.2232 7.59598 23.2521 7.53813 23.2304C7.47304 23.2087 7.43689 23.2449 7.42966 23.3245C7.42966 23.4258 7.41519 23.4331 7.38627 23.3607C7.36457 23.3028 7.40073 23.2159 7.48028 23.158C7.6466 23.035 7.73338 23.035 7.68276 23.1653ZM7.17656 23.2738C7.19825 23.31 7.16932 23.3752 7.1187 23.4186C7.03193 23.491 7.02469 23.4765 7.05362 23.3607C7.09701 23.1942 7.1187 23.1797 7.17656 23.2738ZM3.37281 23.5199C3.4162 23.7226 3.25711 23.8745 3.09079 23.7805C2.95339 23.7081 2.91 23.4982 3.00401 23.3969C3.09802 23.3028 3.35112 23.3896 3.37281 23.5199ZM7.41519 23.8456C7.30672 23.9469 7.30672 23.9686 7.42242 24.0483C7.53813 24.1351 7.53813 24.1496 7.41519 24.2726C7.30672 24.3812 7.29226 24.3812 7.32842 24.2871C7.35734 24.2147 7.32842 24.1206 7.27056 24.07C7.17656 23.9831 7.17656 23.9542 7.2778 23.8384C7.33565 23.7732 7.36457 23.6936 7.33565 23.6647C7.30672 23.6357 7.2561 23.6574 7.22718 23.7081C7.18379 23.7732 7.14763 23.7805 7.1187 23.7226C7.08978 23.6791 7.10424 23.6429 7.1404 23.6429C7.18379 23.6429 7.21994 23.585 7.21994 23.5199C7.21994 23.4186 7.24887 23.4258 7.3718 23.5633C7.51643 23.7153 7.51643 23.737 7.41519 23.8456ZM7.65383 23.9324C7.65383 23.9686 7.62491 24.0048 7.58152 24.0048C7.54536 24.0048 7.5092 23.9686 7.5092 23.9324C7.5092 23.889 7.54536 23.8601 7.58152 23.8601C7.62491 23.8601 7.65383 23.889 7.65383 23.9324ZM18.7541 24.924C19.0361 26.357 19.6002 27.3486 20.7428 28.4414C21.3213 28.9915 21.6105 29.2014 22.1818 29.4981C24.1271 30.4969 26.1446 30.5548 28.0248 29.6501C28.4515 29.4475 28.7841 29.2955 28.7697 29.3172C28.748 29.3317 28.6106 29.4475 28.4515 29.5705C28.1333 29.8238 28.1694 29.8672 28.5238 29.6429C28.7769 29.4837 28.9504 29.5126 28.8781 29.7008C28.842 29.7949 28.8564 29.8021 28.9504 29.7225C29.0589 29.6356 29.0589 29.6212 28.9504 29.5633C28.8926 29.5271 28.8564 29.4619 28.8854 29.4258C28.9071 29.3823 28.9721 29.404 29.03 29.4837C29.1023 29.5777 29.124 29.585 29.1312 29.5126C29.1312 29.4547 29.1529 29.4258 29.1746 29.4547C29.3409 29.6212 27.9959 30.9746 27.3161 31.3148C25.7469 32.1109 23.3027 32.0385 21.4297 31.1411C19.7231 30.3232 18.3925 28.854 17.7562 27.0735C17.4814 26.3136 17.438 25.7708 17.6115 25.3655C17.7417 25.076 18.4432 24.2943 18.5733 24.2943C18.6022 24.2943 18.6818 24.5766 18.7541 24.924ZM30.9029 24.9457C30.8812 24.9819 30.8162 25.0181 30.7728 25.0181C30.7222 25.0181 30.7294 24.9891 30.7945 24.9457C30.9319 24.8589 30.9608 24.8589 30.9029 24.9457ZM8.38421 25.2859C8.29743 25.4306 8.28297 25.3872 8.34805 25.199C8.37698 25.1339 8.41313 25.0977 8.4276 25.1194C8.44929 25.1339 8.4276 25.2135 8.38421 25.2859ZM10.5753 26.7189C10.6693 26.9143 10.8574 27.1966 10.9948 27.3413C11.3491 27.696 11.4359 27.8842 11.3853 28.1737C11.3274 28.4704 11.0381 28.7092 10.72 28.7092C10.2355 28.7092 9.89558 28.2026 9.59909 27.0663C9.40384 26.2991 9.42554 25.3944 9.64248 25.3582C9.68587 25.351 9.70756 25.3076 9.6931 25.2569C9.67864 25.2063 9.70756 25.1628 9.75095 25.1628C9.78711 25.1628 9.82327 25.2207 9.82327 25.2859C9.8305 25.4017 9.84496 25.3944 9.95343 25.2642C10.0764 25.1122 10.0836 25.1266 10.2427 25.7346C10.3367 26.0748 10.4813 26.5163 10.5753 26.7189ZM48.3669 25.9373C48.7574 26.1689 48.8369 26.6176 48.5404 26.965C48.2295 27.3341 47.6871 27.2617 47.4557 26.8202C47.3111 26.5307 47.3762 26.2268 47.6582 25.9952C47.9113 25.7853 48.0849 25.7708 48.3669 25.9373ZM3.08356 28.3691C3.10525 28.5355 3.08356 28.5645 2.92446 28.5645C2.7726 28.5645 2.73645 28.5283 2.73645 28.398C2.73645 28.3039 2.75814 28.2026 2.78707 28.1737C2.89554 28.0723 3.06186 28.1737 3.08356 28.3691ZM40.6871 28.7309C40.7811 29.0132 41.0487 29.6718 41.2873 30.1929C41.5259 30.7068 41.7429 31.1772 41.7646 31.2207C41.7935 31.293 41.5838 31.3148 40.8534 31.3148C40.0796 31.3148 39.8916 31.293 39.8627 31.2062C39.841 31.1483 39.8699 30.9022 39.935 30.6561C40.029 30.2798 40.1953 29.3244 40.3111 28.4342C40.3689 28.0579 40.5063 28.1664 40.6871 28.7309ZM7.08978 29.9396C8.0154 31.1845 9.21582 32.3859 11.1972 34.065C14.7623 37.0831 15.7747 38.0167 16.9029 39.3123C18.1322 40.7236 19.0361 41.9974 20.3233 44.089C21.5454 46.0938 23.1291 48.779 23.1002 48.8152C23.0424 48.8658 21.4587 48.1638 20.0196 47.44C18.0816 46.4702 16.7655 45.6306 14.9938 44.2193C14.0826 43.5028 12.2964 41.7441 11.6601 40.9479C11.4286 40.6512 11.1611 40.3255 11.0671 40.2242L10.9008 40.0432L11.0888 39.884C11.2696 39.7248 11.3274 39.5656 11.1972 39.5656C11.1611 39.5656 11.1249 39.6162 11.1249 39.6741C11.1249 39.7972 11.0092 39.8189 10.9441 39.7103C10.9152 39.6669 10.8646 39.6597 10.8212 39.6814C10.7778 39.7103 10.785 39.7465 10.8429 39.7899C10.8935 39.8189 10.9152 39.8695 10.8863 39.8985C10.8574 39.9274 10.785 39.8913 10.7272 39.8116C10.6332 39.6814 10.6476 39.6669 10.8718 39.5728C11.0092 39.5221 11.1249 39.4425 11.1249 39.4136C11.1249 39.3774 11.1683 39.3484 11.2189 39.3484C11.3202 39.3412 11.595 38.9938 11.5371 38.9359C11.4793 38.878 11.1322 39.153 11.1249 39.2544C11.1249 39.4063 10.9731 39.3629 10.9297 39.2037C10.8935 39.0589 10.691 38.9938 10.691 39.1313C10.691 39.2471 10.4958 39.2109 10.4452 39.0879C10.409 38.9938 10.3801 38.9866 10.2933 39.0589C10.2282 39.1096 10.1848 39.1168 10.1848 39.0734C10.1848 38.9721 10.4307 38.8925 10.4596 38.9793C10.503 39.1096 10.6838 39.0662 10.7634 38.9142C10.8067 38.8346 10.8863 38.7694 10.9441 38.7694C11.002 38.7694 11.0526 38.7188 11.0526 38.6609C11.0526 38.5161 10.9297 38.5234 10.8429 38.6753C10.785 38.7839 10.7561 38.7911 10.6766 38.7115C10.6043 38.6392 10.6115 38.6102 10.7489 38.5813C10.908 38.5378 10.9441 38.4727 10.8574 38.3858C10.8357 38.3569 10.7706 38.3714 10.7127 38.422C10.6621 38.4655 10.5898 38.4727 10.5609 38.4437C10.5319 38.4148 10.5536 38.3714 10.6043 38.3569C10.7127 38.3135 10.72 38.1904 10.6115 38.1904C10.5681 38.1904 10.4886 38.2411 10.4307 38.299C10.3295 38.3931 10.3367 38.4293 10.4669 38.6175C10.691 38.9287 10.6477 38.9793 10.409 38.6971C10.1993 38.451 10.1921 38.4437 10.0908 38.5885C10.0257 38.6681 9.96066 38.7115 9.93897 38.6898C9.88835 38.6392 10.3005 38.1904 10.4018 38.1904C10.4813 38.1904 10.4958 38.0963 10.4235 38.024C10.4018 37.995 10.315 38.024 10.2427 38.0963C10.1704 38.1615 10.0908 38.1904 10.0547 38.1615C10.0257 38.1325 10.0691 38.0602 10.1414 38.0023C10.2572 37.9226 10.2644 37.8792 10.1993 37.8141C10.127 37.7417 10.0547 37.7851 9.85942 38.0095C9.63525 38.27 9.60632 38.2845 9.60632 38.1325C9.60632 38.0457 9.64971 37.9733 9.70033 37.9733C9.75095 37.9733 9.8305 37.9082 9.88112 37.8213C9.96789 37.6838 9.9462 37.6404 9.62802 37.3509C9.44 37.1772 9.25921 37.0324 9.23752 37.0324C9.21582 37.0324 9.12181 36.9673 9.02781 36.8877C8.94103 36.8081 8.83256 36.7646 8.78917 36.7936C8.74578 36.8153 8.73855 36.8008 8.76747 36.7502C8.7964 36.6995 8.75301 36.6054 8.65177 36.5186C8.21065 36.1277 8.7964 36.562 9.59186 37.2134C10.0764 37.6114 10.6332 38.0602 10.8212 38.2194C11.0092 38.3714 11.3708 38.6826 11.6239 38.907C11.877 39.1313 12.1229 39.334 12.1663 39.3629C12.2169 39.3991 12.1446 39.5077 11.9638 39.6741C11.8119 39.8189 11.7107 39.9564 11.7396 39.9853C11.7613 40.0143 11.8987 39.913 12.0433 39.7537L12.2964 39.4787L12.6001 39.7827L12.4266 39.9636C12.3326 40.065 12.282 40.1446 12.3181 40.1446C12.347 40.1446 12.4338 40.0794 12.4989 39.9998C12.6291 39.8551 12.6291 39.8551 13.0413 40.2821C13.2654 40.5137 13.7427 41.0782 14.1043 41.5269C14.9648 42.6126 15.189 42.8442 15.782 43.264C16.2809 43.6186 16.4762 43.691 16.4762 43.539C16.4762 43.3798 15.2685 41.6283 14.6177 40.8321C13.938 40.0071 12.8388 38.8925 11.9421 38.1181C11.6528 37.8647 11.4359 37.6331 11.4648 37.5897C11.4937 37.5463 11.472 37.5391 11.4214 37.5752C11.2985 37.6476 10.9803 37.3364 11.0309 37.1844C11.0526 37.1048 11.0454 37.0976 11.002 37.1555C10.9514 37.2206 10.8935 37.2134 10.7561 37.1193C10.3295 36.8298 9.97513 36.4968 10.0185 36.4317C10.0474 36.3883 10.0257 36.381 9.97513 36.41C9.84496 36.4896 9.57016 36.2291 9.6931 36.1422C9.76541 36.0988 9.75818 36.0915 9.67864 36.1133C9.53401 36.1567 9.3026 36.0336 9.35322 35.9468C9.38215 35.9034 9.34599 35.8961 9.27367 35.9251C9.19413 35.954 9.1652 35.9468 9.20136 35.8889C9.23029 35.8455 9.17967 35.802 9.08566 35.7876C8.92657 35.7659 8.80363 35.5849 8.95549 35.5849C8.99888 35.5849 9.01334 35.6139 8.99165 35.6573C8.96995 35.6935 8.98442 35.7297 9.02781 35.7297C9.07843 35.7297 9.09289 35.679 9.07119 35.6139C9.04227 35.5487 9.06396 35.4402 9.11458 35.3823C9.1652 35.3171 9.10012 35.3388 8.97719 35.4329C8.83256 35.527 8.75301 35.556 8.7747 35.4908C8.82533 35.375 8.5433 35.1 8.46375 35.1868C8.43483 35.2158 8.45652 35.2592 8.50714 35.2737C8.55053 35.2954 8.59392 35.3388 8.59392 35.3823C8.59392 35.4257 8.52884 35.404 8.45652 35.3388C8.31912 35.2086 8.31912 35.2013 8.44929 35.0638C8.57946 34.9263 8.78917 34.9408 8.70239 35.0855C8.67346 35.1217 8.69516 35.1507 8.73132 35.1507C8.83979 35.1507 8.83256 35.071 8.69516 34.9263C8.58669 34.8033 8.57222 34.8105 8.44206 34.9408C8.25404 35.1289 8.12387 35.1145 8.30466 34.9191C8.38421 34.8322 8.44929 34.7381 8.44929 34.7019C8.44929 34.5861 8.66623 34.644 8.75301 34.7888C8.84702 34.9408 8.95549 34.9842 8.95549 34.8684C8.95549 34.796 7.79123 33.7828 7.55982 33.6525C7.47304 33.6018 7.42966 33.5656 7.46581 33.5584C7.50197 33.5584 7.47304 33.486 7.3935 33.3992C7.16932 33.1459 7.40073 33.3123 8.55776 34.246C9.15797 34.7236 9.90281 35.3099 10.221 35.5487C10.9224 36.0698 12.1229 37.0469 13.1642 37.9588C15.1384 39.6741 16.9101 41.9033 18.3491 44.4509C18.877 45.3846 18.8481 45.3484 19.3977 45.6813C19.8894 45.978 19.9762 45.9925 19.9039 45.7682C19.7376 45.2181 18.4287 42.9238 17.7851 42.048C17.6043 41.802 17.4018 41.5342 17.344 41.4401C16.1652 39.6958 14.3429 37.8937 11.2623 35.4329C8.74578 33.4136 7.8997 32.6465 7.32842 31.872C7.19102 31.6766 7.14763 31.5681 7.20548 31.5464C7.30672 31.5174 7.32118 31.3148 7.22718 31.3148C7.19102 31.3148 7.1404 31.3582 7.12594 31.4016C7.09701 31.474 7.06808 31.4667 7.01023 31.3871C6.95961 31.3075 6.96684 31.2641 7.04639 31.2207C7.17656 31.1483 7.11147 31.018 6.96684 31.0759C6.90899 31.0976 6.85837 31.0904 6.85837 31.0614C6.85837 31.0108 7.09701 30.7575 7.10424 30.8009C7.11147 30.8226 7.17656 30.8009 7.2561 30.7575C7.52367 30.6055 7.29949 30.5693 7.003 30.714C6.79329 30.8226 6.71374 30.8371 6.71374 30.7647C6.71374 30.714 6.82945 30.6344 6.96684 30.5838C7.12594 30.5259 7.19825 30.468 7.14763 30.4173C7.10424 30.3739 7.03916 30.3811 6.97408 30.439C6.91622 30.4897 6.80775 30.5186 6.73544 30.5041C6.64143 30.4897 6.67035 30.4462 6.85837 30.3522C7.08255 30.2291 7.08978 30.2219 6.91622 30.2508C6.7716 30.2725 6.71374 30.2436 6.69205 30.1423C6.65589 30.0265 6.67035 30.0192 6.75713 30.0916C6.90176 30.2146 6.95961 30.1278 6.85114 29.9541C6.80052 29.8745 6.71374 29.8238 6.66312 29.8455C6.59804 29.8745 6.58358 29.8455 6.61973 29.7514C6.65589 29.6574 6.64143 29.6429 6.56911 29.6863C6.4968 29.7297 6.48234 29.7153 6.51849 29.6284C6.54019 29.5633 6.53296 29.5054 6.50403 29.4909C6.47511 29.4764 6.42449 29.3534 6.40279 29.2159L6.3594 28.9625L6.51849 29.1724C6.60527 29.2882 6.8656 29.6356 7.08978 29.9396ZM4.07426 31.778C4.37075 31.9082 4.47199 32.0819 4.47199 32.48C4.47199 33.2689 3.48129 33.486 3.11248 32.784C2.86661 32.3353 3.22095 31.7056 3.73439 31.6839C3.78501 31.6766 3.93687 31.7201 4.07426 31.778ZM7.61767 33.7683C7.63937 33.8045 7.62491 33.8551 7.58152 33.8841C7.54536 33.9058 7.5092 33.8769 7.5092 33.819C7.5092 33.6887 7.55259 33.667 7.61767 33.7683ZM7.76953 34.0433C7.69722 34.1157 7.63214 34.0071 7.69722 33.913C7.74061 33.8334 7.75507 33.8334 7.784 33.913C7.79846 33.9637 7.79123 34.0216 7.76953 34.0433ZM8.08772 34.1881C8.08772 34.2387 7.84908 34.4197 7.784 34.4269C7.7623 34.4269 7.77677 34.3473 7.82015 34.2532C7.89247 34.1085 8.08772 34.065 8.08772 34.1881ZM19.4989 34.3183C19.4772 34.3401 19.4339 34.3039 19.4122 34.2315C19.3688 34.1302 19.376 34.1229 19.4483 34.1881C19.4989 34.2387 19.5206 34.2966 19.4989 34.3183ZM19.9184 34.246C19.8967 34.3039 19.9111 34.3545 19.9473 34.3545C19.9907 34.3545 20.0196 34.3835 20.0196 34.4269C20.0196 34.4631 19.969 34.4993 19.9111 34.4993C19.8533 34.4993 19.8027 34.5499 19.8027 34.6151C19.8027 34.7454 19.8461 34.7236 20.2293 34.3907C20.4029 34.246 20.4029 34.246 20.3523 34.3907C20.3089 34.5065 20.3161 34.521 20.3884 34.4414C20.5547 34.2822 20.6054 34.3545 20.4824 34.5861L20.3667 34.825L20.5475 34.6151C20.6632 34.4703 20.7355 34.4341 20.7717 34.4848C20.8006 34.5355 20.7861 34.5717 20.7428 34.5717C20.6994 34.5717 20.6777 34.6006 20.7066 34.6368C20.7283 34.673 20.8295 34.6947 20.9235 34.673C21.0537 34.6513 21.1043 34.673 21.1043 34.7526C21.1043 34.8177 21.1405 34.8467 21.1766 34.825C21.22 34.796 21.2345 34.7454 21.2128 34.7092C21.1839 34.673 21.1839 34.644 21.2056 34.644C21.2273 34.644 21.2996 34.7526 21.3647 34.8756C21.5382 35.223 22.5072 36.4172 23.0568 36.9673C23.3171 37.2278 23.7727 37.6259 24.0765 37.843C24.7562 38.3497 24.8285 38.4365 24.8285 38.7694C24.8285 39.2905 24.2934 39.58 23.8523 39.2978C23.2593 38.9214 19.2169 34.2966 19.6146 34.4486C19.7014 34.4848 19.7593 34.4414 19.8171 34.3183C19.9039 34.1229 19.9907 34.065 19.9184 34.246ZM8.36974 34.4197C8.50714 34.5572 8.50714 34.5644 8.29743 34.7598C8.11664 34.9335 8.07325 34.948 8.0154 34.8612C7.91416 34.7019 7.92863 34.5644 8.06602 34.4124C8.21065 34.2532 8.20342 34.2532 8.36974 34.4197ZM21.1332 34.4703C21.1549 34.5282 21.1477 34.5572 21.1043 34.5355C21.0609 34.5138 21.032 34.4631 21.032 34.4197C21.032 34.3183 21.0826 34.3401 21.1332 34.4703ZM24.2934 35.0276C24.4742 35.1145 25.4794 35.9251 25.9277 36.3521C26.2314 36.6488 26.2459 36.9383 25.9639 37.2568C25.7975 37.445 25.7035 37.4884 25.4577 37.4884C25.1395 37.4884 24.8285 37.293 23.9391 36.533C23.3533 36.0409 23.1942 35.5921 23.4762 35.252C23.7221 34.9408 23.968 34.8756 24.2934 35.0276ZM46.0167 36.381C46.1251 36.5041 46.1324 36.5547 46.0673 36.7067C45.9227 37.0179 45.4743 36.9094 45.4743 36.562C45.4743 36.2363 45.7925 36.135 46.0167 36.381ZM5.80258 37.1482C6.02676 37.3726 5.89659 37.6838 5.57841 37.6838C5.33977 37.6838 5.22406 37.4305 5.37593 37.2061C5.50609 37.0035 5.64349 36.9818 5.80258 37.1482ZM9.17243 37.1772C9.17243 37.2134 9.13628 37.2495 9.09289 37.2495C9.05673 37.2495 9.04227 37.2134 9.06396 37.1772C9.08566 37.1338 9.12181 37.1048 9.14351 37.1048C9.15797 37.1048 9.17243 37.1338 9.17243 37.1772ZM9.36045 37.3581C9.33876 37.416 9.35322 37.4667 9.39661 37.4667C9.44 37.4667 9.44723 37.5029 9.4183 37.5463C9.38215 37.6042 9.34599 37.5897 9.3026 37.5101C9.26644 37.445 9.25921 37.3581 9.28091 37.3219C9.35322 37.2134 9.41107 37.2351 9.36045 37.3581ZM9.62802 37.7924C9.50508 37.9588 9.38938 38.024 9.38938 37.9299C9.38938 37.843 9.64248 37.5535 9.70033 37.5897C9.72926 37.6042 9.6931 37.6983 9.62802 37.7924ZM9.96789 38.2556C9.96789 38.2918 9.92451 38.3569 9.86665 38.4003C9.77988 38.4727 9.77264 38.4582 9.80157 38.3424C9.83773 38.1904 9.96789 38.1253 9.96789 38.2556ZM10.3295 38.726C10.3295 38.7477 10.3005 38.7839 10.2572 38.8056C10.221 38.8273 10.1848 38.8129 10.1848 38.7767C10.1848 38.7332 10.221 38.6971 10.2572 38.6971C10.3005 38.6971 10.3295 38.7115 10.3295 38.726ZM10.8863 39.3919C10.9008 39.4353 10.8212 39.4715 10.691 39.4715C10.5753 39.4715 10.4741 39.4425 10.4741 39.4063C10.4741 39.3702 10.5103 39.3629 10.5464 39.3846C10.5898 39.4063 10.6187 39.3919 10.6187 39.3484C10.6187 39.2471 10.8501 39.2833 10.8863 39.3919ZM8.26127 40.9045C8.35528 41.1506 8.08772 41.3822 7.8997 41.223C7.79123 41.1361 7.7623 40.9262 7.84908 40.8466C7.93586 40.7525 8.21788 40.796 8.26127 40.9045Z" fill="black" />
  <path d="M8.55776 19.4452C8.57945 19.4813 8.63731 19.5175 8.67346 19.5175C8.71685 19.5175 8.72408 19.4813 8.70239 19.4452C8.68069 19.4017 8.62284 19.3728 8.58669 19.3728C8.5433 19.3728 8.53607 19.4017 8.55776 19.4452Z" fill="black" />
  <path d="M8.23234 19.5972C8.23234 19.6333 8.2685 19.6478 8.30466 19.6261C8.34805 19.6044 8.37697 19.5682 8.37697 19.5465C8.37697 19.532 8.34805 19.5175 8.30466 19.5175C8.2685 19.5175 8.23234 19.5537 8.23234 19.5972Z" fill="black" />
  <path d="M7.79846 19.807C7.79846 19.8432 7.83462 19.8794 7.87077 19.8794C7.91416 19.8794 7.94309 19.8432 7.94309 19.807C7.94309 19.7636 7.91416 19.7347 7.87077 19.7347C7.83462 19.7347 7.79846 19.7636 7.79846 19.807Z" fill="black" />
  <path d="M8.08772 19.807C8.08772 19.8432 8.12387 19.8794 8.16726 19.8794C8.20342 19.8794 8.21788 19.8432 8.19619 19.807C8.17449 19.7636 8.13834 19.7347 8.11664 19.7347C8.10218 19.7347 8.08772 19.7636 8.08772 19.807Z" fill="black" />
  <path d="M8.44929 19.807C8.44929 19.8432 8.48545 19.8794 8.5216 19.8794C8.56499 19.8794 8.59392 19.8432 8.59392 19.807C8.59392 19.7636 8.56499 19.7347 8.5216 19.7347C8.48545 19.7347 8.44929 19.7636 8.44929 19.807Z" fill="black" />
  <path d="M8.23235 20.0242C8.23235 20.0604 8.16003 20.0965 8.07325 20.1038C7.91416 20.1038 7.91416 20.111 8.05156 20.1617C8.13111 20.1979 8.23235 20.1906 8.2902 20.1544C8.39867 20.0676 8.4059 19.9518 8.30466 19.9518C8.2685 19.9518 8.23235 19.9807 8.23235 20.0242Z" fill="black" />
  <path d="M8.59392 20.14C8.59392 20.1979 8.63008 20.2268 8.66623 20.2051C8.70962 20.1762 8.72408 20.1255 8.70239 20.0893C8.63731 19.988 8.59392 20.0097 8.59392 20.14Z" fill="black" />
  <path d="M8.0154 20.4584C8.0154 20.4946 8.05156 20.5308 8.09495 20.5308C8.1311 20.5308 8.14557 20.4946 8.12387 20.4584C8.10218 20.415 8.06602 20.386 8.04433 20.386C8.02987 20.386 8.0154 20.415 8.0154 20.4584Z" fill="black" />
  <path d="M8.77471 20.4584C8.7964 20.4946 8.83256 20.5308 8.85425 20.5308C8.86872 20.5308 8.88318 20.4946 8.88318 20.4584C8.88318 20.415 8.84702 20.386 8.80363 20.386C8.76748 20.386 8.75301 20.415 8.77471 20.4584Z" fill="black" />
  <path d="M7.79846 20.5887C7.79846 20.6755 7.93586 20.7769 7.98648 20.7262C8.00094 20.7117 7.97201 20.6538 7.90693 20.6032C7.84185 20.5453 7.79846 20.5453 7.79846 20.5887Z" fill="black" />
  <path d="M7.5092 20.6755C7.5092 20.7117 7.54536 20.7479 7.58152 20.7479C7.62491 20.7479 7.65383 20.7117 7.65383 20.6755C7.65383 20.6321 7.62491 20.6032 7.58152 20.6032C7.54536 20.6032 7.5092 20.6321 7.5092 20.6755Z" fill="black" />
  <path d="M29.999 25.199C29.999 25.2497 30.5197 25.4596 30.5558 25.4234C30.5775 25.4017 30.4907 25.3365 30.3678 25.2786C30.1509 25.1628 29.999 25.1339 29.999 25.199Z" fill="black" />
  <path d="M30.0713 25.6695C30.0713 25.7056 30.1075 25.7418 30.1509 25.7418C30.187 25.7418 30.2015 25.7056 30.1798 25.6695C30.1581 25.626 30.1219 25.5971 30.1002 25.5971C30.0858 25.5971 30.0713 25.626 30.0713 25.6695Z" fill="black" />
  <path d="M29.5362 25.8576C29.5073 25.93 29.529 25.959 29.5796 25.9445C29.6881 25.9083 29.7459 25.7418 29.6519 25.7418C29.6157 25.7418 29.5579 25.7925 29.5362 25.8576Z" fill="black" />
  <path d="M29.8544 25.8866C29.8544 25.9228 29.8905 25.959 29.9267 25.959C29.9701 25.959 29.999 25.9228 29.999 25.8866C29.999 25.8432 29.9701 25.8142 29.9267 25.8142C29.8905 25.8142 29.8544 25.8432 29.8544 25.8866Z" fill="black" />
  <path d="M29.7459 26.1037C29.7676 26.1399 29.8038 26.1761 29.8254 26.1761C29.8399 26.1761 29.8544 26.1399 29.8544 26.1037C29.8544 26.0603 29.8182 26.0313 29.7748 26.0313C29.7387 26.0313 29.7242 26.0603 29.7459 26.1037Z" fill="black" />
  <path d="M29.8255 26.5163C29.7821 26.6176 29.7893 26.6248 29.8616 26.5597C29.9122 26.509 29.9339 26.4511 29.9122 26.4294C29.8905 26.4077 29.8471 26.4439 29.8255 26.5163Z" fill="black" />
  <path d="M9.78711 21.1098C9.8088 21.146 9.84496 21.1822 9.86665 21.1822C9.88112 21.1822 9.89558 21.146 9.89558 21.1098C9.89558 21.0664 9.85942 21.0374 9.81603 21.0374C9.77988 21.0374 9.76541 21.0664 9.78711 21.1098Z" fill="black" />
  <path d="M9.31706 21.4717C9.31706 21.5079 9.35322 21.5441 9.38938 21.5441C9.43277 21.5441 9.46169 21.5079 9.46169 21.4717C9.46169 21.4283 9.43277 21.3993 9.38938 21.3993C9.35322 21.3993 9.31706 21.4283 9.31706 21.4717Z" fill="black" />
  <path d="M9.75095 21.5441C9.75095 21.5802 9.78711 21.6164 9.83049 21.6164C9.86665 21.6164 9.88111 21.5802 9.85942 21.5441C9.83773 21.5006 9.80157 21.4717 9.77987 21.4717C9.76541 21.4717 9.75095 21.5006 9.75095 21.5441Z" fill="black" />
  <path d="M9.02781 21.6888C9.02781 21.725 9.06396 21.7612 9.10012 21.7612C9.14351 21.7612 9.17243 21.725 9.17243 21.6888C9.17243 21.6454 9.14351 21.6164 9.10012 21.6164C9.06396 21.6164 9.02781 21.6454 9.02781 21.6888Z" fill="black" />
  <path d="M8.7747 21.9059C8.7964 21.9421 8.84702 21.9783 8.89041 21.9783C8.92656 21.9783 8.95549 21.9421 8.95549 21.9059C8.95549 21.8625 8.90487 21.8336 8.83979 21.8336C8.78194 21.8336 8.75301 21.8625 8.7747 21.9059Z" fill="black" />
  <path d="M9.82326 21.9059C9.82326 21.9421 9.85942 21.9783 9.90281 21.9783C9.93897 21.9783 9.95343 21.9421 9.93174 21.9059C9.91004 21.8625 9.87389 21.8336 9.85219 21.8336C9.83773 21.8336 9.82326 21.8625 9.82326 21.9059Z" fill="black" />
  <path d="M9.17244 21.9783C9.10735 22.0217 9.10012 22.0507 9.15074 22.0507C9.19413 22.0507 9.25921 22.0145 9.28091 21.9783C9.33876 21.8915 9.30983 21.8915 9.17244 21.9783Z" fill="black" />
  <path d="M8.48545 22.1954C8.46375 22.2316 8.50714 22.2678 8.58669 22.2678C8.67346 22.2678 8.73855 22.2316 8.73855 22.1954C8.73855 22.152 8.69516 22.1231 8.63731 22.1231C8.57946 22.1231 8.50714 22.152 8.48545 22.1954Z" fill="black" />
  <path d="M8.9338 22.1737C8.90487 22.1954 8.88317 22.2533 8.88317 22.2968C8.88317 22.3402 8.91933 22.333 8.96995 22.2823C9.01334 22.2389 9.03504 22.181 9.02057 22.1593C8.99888 22.1375 8.95549 22.1448 8.9338 22.1737Z" fill="black" />
  <path d="M9.60632 22.1954C9.60632 22.2316 9.65694 22.2678 9.72202 22.2678C9.77988 22.2678 9.8088 22.2316 9.78711 22.1954C9.76541 22.152 9.71479 22.1231 9.6714 22.1231C9.63525 22.1231 9.60632 22.152 9.60632 22.1954Z" fill="black" />
  <path d="M9.17243 22.3402C9.17243 22.3764 9.20859 22.4126 9.24475 22.4126C9.28814 22.4126 9.31706 22.3764 9.31706 22.3402C9.31706 22.2968 9.28814 22.2678 9.24475 22.2678C9.20859 22.2678 9.17243 22.2968 9.17243 22.3402Z" fill="black" />
  <path d="M8.30466 22.4849C8.30466 22.5211 8.35528 22.5573 8.42036 22.5573C8.47821 22.5573 8.50714 22.5211 8.48545 22.4849C8.46375 22.4415 8.41313 22.4126 8.36974 22.4126C8.33359 22.4126 8.30466 22.4415 8.30466 22.4849Z" fill="black" />
  <path d="M8.66623 22.5573C8.66623 22.5935 8.71685 22.6297 8.78193 22.6297C8.83979 22.6297 8.86871 22.5935 8.84702 22.5573C8.82532 22.5139 8.7747 22.4849 8.73132 22.4849C8.69516 22.4849 8.66623 22.5139 8.66623 22.5573Z" fill="black" />
  <path d="M9.42553 22.5573C9.40384 22.5935 9.43277 22.6297 9.49062 22.6297C9.5557 22.6297 9.60632 22.5935 9.60632 22.5573C9.60632 22.5139 9.57739 22.4849 9.54124 22.4849C9.49785 22.4849 9.44723 22.5139 9.42553 22.5573Z" fill="black" />
  <path d="M9.82326 22.5573C9.82326 22.5935 9.85942 22.6297 9.89558 22.6297C9.93897 22.6297 9.96789 22.5935 9.96789 22.5573C9.96789 22.5139 9.93897 22.4849 9.89558 22.4849C9.85942 22.4849 9.82326 22.5139 9.82326 22.5573Z" fill="black" />
  <path d="M9.17966 22.8251C9.12904 22.883 9.10012 22.9409 9.12181 22.9626C9.13628 22.9771 9.19413 22.9481 9.24475 22.883C9.36768 22.7383 9.30983 22.6876 9.17966 22.8251Z" fill="black" />
  <path d="M9.71479 22.7744C9.6931 22.8106 9.70756 22.8468 9.74372 22.8468C9.78711 22.8468 9.82327 22.8106 9.82327 22.7744C9.82327 22.731 9.8088 22.7021 9.79434 22.7021C9.77265 22.7021 9.73649 22.731 9.71479 22.7744Z" fill="black" />
  <path d="M8.23235 22.883C8.16003 22.9699 8.16003 22.9916 8.25404 22.9916C8.31189 22.9916 8.37697 22.9409 8.4059 22.883C8.42759 22.8251 8.42036 22.7744 8.38421 22.7744C8.34805 22.7744 8.28297 22.8251 8.23235 22.883Z" fill="black" />
  <path d="M8.52884 22.912C8.44206 23.0639 8.42036 23.2594 8.49268 23.187C8.51437 23.1653 8.53607 23.1218 8.53607 23.0857C8.5433 23.0567 8.59392 22.9916 8.65177 22.9481C8.72408 22.8975 8.73855 22.854 8.6807 22.8179C8.63731 22.7962 8.56499 22.8323 8.52884 22.912Z" fill="black" />
  <path d="M9.38938 22.9916C9.38938 23.0278 9.42553 23.0639 9.46169 23.0639C9.50508 23.0639 9.53401 23.0278 9.53401 22.9916C9.53401 22.9481 9.50508 22.9192 9.46169 22.9192C9.42553 22.9192 9.38938 22.9481 9.38938 22.9916Z" fill="black" />
  <path d="M7.99371 23.2159C7.92139 23.2955 7.87801 23.3896 7.8997 23.4113C7.94309 23.4548 8.1528 23.2159 8.16003 23.1146C8.16003 23.035 8.13111 23.0495 7.99371 23.2159Z" fill="black" />
  <path d="M8.70239 23.2015C8.659 23.2811 8.76747 23.3679 8.83979 23.3028C8.90487 23.2376 8.89041 23.1363 8.81809 23.1363C8.7747 23.1363 8.73131 23.1653 8.70239 23.2015Z" fill="black" />
  <path d="M9.17243 23.2087C9.17243 23.2449 9.20859 23.2811 9.25198 23.2811C9.28814 23.2811 9.3026 23.2449 9.28091 23.2087C9.25921 23.1653 9.22305 23.1363 9.20136 23.1363C9.1869 23.1363 9.17243 23.1653 9.17243 23.2087Z" fill="black" />
  <path d="M8.21065 23.3824C8.18173 23.4548 8.20342 23.4765 8.27573 23.4475C8.32635 23.4258 8.37697 23.3824 8.37697 23.3462C8.37697 23.2449 8.25404 23.2738 8.21065 23.3824Z" fill="black" />
  <path d="M8.46375 23.5054C8.47821 23.5489 8.5216 23.5778 8.55776 23.5778C8.59392 23.5778 8.63731 23.5489 8.65177 23.5054C8.66623 23.462 8.62284 23.4258 8.55776 23.4258C8.49268 23.4258 8.44929 23.462 8.46375 23.5054Z" fill="black" />
  <path d="M8.95549 23.4982C8.95549 23.5344 8.99165 23.5706 9.02781 23.5706C9.07119 23.5706 9.10012 23.5344 9.10012 23.4982C9.10012 23.4548 9.07119 23.4258 9.02781 23.4258C8.99165 23.4258 8.95549 23.4548 8.95549 23.4982Z" fill="black" />
  <path d="M7.87077 23.7298C7.87077 23.8673 7.88524 23.8745 7.94309 23.7877C8.0371 23.6502 8.0371 23.5706 7.94309 23.5706C7.90693 23.5706 7.87077 23.6429 7.87077 23.7298Z" fill="black" />
  <path d="M8.19619 23.7153C8.21789 23.7515 8.25404 23.7877 8.27574 23.7877C8.2902 23.7877 8.30466 23.7515 8.30466 23.7153C8.30466 23.6719 8.26851 23.6429 8.22512 23.6429C8.18896 23.6429 8.1745 23.6719 8.19619 23.7153Z" fill="black" />
  <path d="M8.70239 23.7153C8.6807 23.7515 8.69516 23.7877 8.73132 23.7877C8.77471 23.7877 8.81086 23.7515 8.81086 23.7153C8.81086 23.6719 8.7964 23.6429 8.78194 23.6429C8.76024 23.6429 8.72408 23.6719 8.70239 23.7153Z" fill="black" />
  <path d="M8.37698 23.7587C8.37698 23.8094 8.57222 24.0048 8.62284 24.0048C8.71685 24.0048 8.659 23.889 8.5216 23.8022C8.44206 23.7515 8.37698 23.7298 8.37698 23.7587Z" fill="black" />
  <path d="M8.08772 23.9324C8.08772 23.9686 8.12387 24.0048 8.16003 24.0048C8.20342 24.0048 8.23235 23.9686 8.23235 23.9324C8.23235 23.889 8.20342 23.8601 8.16003 23.8601C8.12387 23.8601 8.08772 23.889 8.08772 23.9324Z" fill="black" />
  <path d="M8.73855 24.1568C8.73855 24.193 8.7747 24.2075 8.81086 24.1858C8.85425 24.1641 8.88318 24.1279 8.88318 24.1062C8.88318 24.0917 8.85425 24.0772 8.81086 24.0772C8.7747 24.0772 8.73855 24.1134 8.73855 24.1568Z" fill="black" />
  <path d="M8.12388 24.2943C8.10218 24.3305 8.11664 24.3667 8.1528 24.3667C8.19619 24.3667 8.23235 24.3305 8.23235 24.2943C8.23235 24.2509 8.21789 24.222 8.20342 24.222C8.18173 24.222 8.14557 24.2509 8.12388 24.2943Z" fill="black" />
  <path d="M8.21065 24.6055C8.10218 24.7358 8.10218 24.7648 8.19619 24.8227C8.26127 24.8516 8.35528 24.8444 8.43482 24.801C8.5433 24.7358 8.53607 24.7286 8.39867 24.7648C8.21788 24.8154 8.18173 24.7358 8.31912 24.5983C8.36251 24.5549 8.39144 24.497 8.36974 24.4825C8.35528 24.4608 8.28297 24.5187 8.21065 24.6055Z" fill="black" />
  <path d="M7.27779 30.8588C7.1404 30.895 7.10424 30.9891 7.21271 31.0542C7.24164 31.0759 7.32841 31.0325 7.40073 30.9529C7.53089 30.8081 7.51643 30.7936 7.27779 30.8588Z" fill="black" />
  <path d="M7.48751 31.0832C7.35011 31.2351 7.32841 31.3148 7.43689 31.3148C7.48028 31.3148 7.5092 31.2713 7.5092 31.2134C7.5092 31.1555 7.55259 31.0976 7.60321 31.0759C7.6466 31.0614 7.66829 31.0253 7.6466 30.9963C7.6249 30.9746 7.55259 31.0108 7.48751 31.0832Z" fill="black" />
  <path d="M7.72615 31.2424C7.72615 31.2786 7.7623 31.3148 7.79846 31.3148C7.84185 31.3148 7.87077 31.2786 7.87077 31.2424C7.87077 31.199 7.84185 31.17 7.79846 31.17C7.7623 31.17 7.72615 31.199 7.72615 31.2424Z" fill="black" />
  <path d="M7.45135 31.5102C7.36457 31.6115 7.30672 31.7128 7.32841 31.7345C7.38627 31.7924 7.67552 31.4885 7.6466 31.4016C7.63214 31.3582 7.54536 31.4088 7.45135 31.5102Z" fill="black" />
  <path d="M7.92139 31.4667C7.97201 31.5174 8.02986 31.5391 8.05156 31.5174C8.07325 31.4957 8.0371 31.4523 7.96478 31.4306C7.86354 31.3871 7.85631 31.3944 7.92139 31.4667Z" fill="black" />
  <path d="M7.65383 31.7128C7.55982 31.8141 7.50197 31.9082 7.52366 31.9299C7.53813 31.9517 7.63213 31.8865 7.72614 31.7852C7.82015 31.6839 7.878 31.5898 7.85631 31.5681C7.84185 31.5464 7.74784 31.6115 7.65383 31.7128Z" fill="black" />
  <path d="M8.13111 31.7128C8.10941 31.778 8.05879 31.8069 8.0154 31.7852C7.97925 31.7635 7.94309 31.7852 7.94309 31.8431C7.94309 31.901 7.89247 31.9661 7.83462 31.9951C7.77677 32.0168 7.72615 32.0747 7.72615 32.1254C7.72615 32.176 7.84908 32.0964 7.99371 31.9517C8.13834 31.7997 8.23958 31.6622 8.21788 31.6404C8.19619 31.6187 8.16003 31.6477 8.13111 31.7128Z" fill="black" />
  <path d="M8.27574 31.9299C8.19619 31.9878 8.1528 32.053 8.17449 32.0747C8.18896 32.0964 8.2685 32.0457 8.34082 31.9661C8.49268 31.7997 8.47098 31.7852 8.27574 31.9299Z" fill="black" />
  <path d="M8.69516 32.3352C8.67346 32.3787 8.55053 32.4728 8.42036 32.5524C8.17449 32.7044 8.19619 32.7333 8.47098 32.6103C8.61561 32.5451 8.86871 32.2556 8.78194 32.2556C8.76024 32.2556 8.72409 32.2918 8.69516 32.3352Z" fill="black" />
  <path d="M9.24475 35.1507C9.24475 35.1868 9.28091 35.223 9.3243 35.223C9.36045 35.223 9.37492 35.1868 9.35322 35.1507C9.33153 35.1072 9.29537 35.0783 9.27367 35.0783C9.25921 35.0783 9.24475 35.1072 9.24475 35.1507Z" fill="black" />
  <path d="M9.23752 35.5994C9.15074 35.7659 9.15074 35.7659 9.30983 35.6283C9.47616 35.4763 9.49785 35.4402 9.38938 35.4402C9.35322 35.4402 9.28091 35.5125 9.23752 35.5994Z" fill="black" />
  <path d="M9.59909 35.6356C9.50508 35.7514 9.51231 35.7586 9.62802 35.6645C9.74372 35.5704 9.77988 35.5125 9.72202 35.5125C9.70756 35.5125 9.64971 35.5704 9.59909 35.6356Z" fill="black" />
  <path d="M9.79434 35.9251C9.75095 36.0264 9.75818 36.0336 9.8305 35.9685C9.88112 35.9178 9.90281 35.8599 9.88112 35.8382C9.85942 35.8165 9.81603 35.8527 9.79434 35.9251Z" fill="black" />
  <path d="M11.5443 37.3002C11.595 37.3219 11.6601 37.3147 11.6817 37.293C11.7107 37.2713 11.6673 37.2495 11.5877 37.2568C11.5082 37.2568 11.4865 37.2785 11.5443 37.3002Z" fill="black" />
  <path d="M11.8191 37.4377C11.783 37.5391 11.7902 37.5463 11.8842 37.4667C12.0072 37.3654 12.0216 37.3219 11.9276 37.3219C11.8915 37.3219 11.8408 37.3726 11.8191 37.4377Z" fill="black" />
  <path d="M11.9132 37.8068C11.8191 37.9226 11.8264 37.9299 11.9421 37.8358C12.0578 37.7417 12.0939 37.6838 12.0361 37.6838C12.0216 37.6838 11.9638 37.7417 11.9132 37.8068Z" fill="black" />
  <path d="M11.1249 38.8056C11.1249 38.8635 11.0743 38.9142 11.0092 38.9142C10.9441 38.9142 10.908 38.9504 10.9224 39.001C10.9658 39.1313 11.1249 39.153 11.1249 39.03C11.1249 38.9649 11.1755 38.9142 11.2334 38.9142C11.2912 38.9142 11.3419 38.8635 11.3419 38.8056C11.3419 38.7477 11.2912 38.6971 11.2334 38.6971C11.1755 38.6971 11.1249 38.7477 11.1249 38.8056Z" fill="black" />
  <path d="M11.501 39.3123C11.407 39.4063 11.3491 39.5221 11.378 39.5656C11.4214 39.6307 11.7758 39.2833 11.7758 39.1747C11.7758 39.0807 11.6601 39.1385 11.501 39.3123Z" fill="black" />
  <path d="M11.7107 39.5004C11.6167 39.6235 11.5588 39.7393 11.5805 39.761C11.6239 39.8044 11.9855 39.4208 11.9927 39.3267C11.9927 39.2182 11.877 39.2905 11.7107 39.5004Z" fill="black" />
  <path d="M12.2096 39.8189C12.159 39.884 12.1301 39.9492 12.1518 39.9636C12.1735 39.9853 12.2313 39.9564 12.282 39.8913C12.3326 39.8261 12.3615 39.761 12.3398 39.7465C12.3181 39.7248 12.2603 39.7537 12.2096 39.8189Z" fill="black" />
  <path d="M11.3202 39.8261C11.2623 39.884 11.3274 39.9998 11.4214 39.9998C11.4576 39.9998 11.4865 39.9492 11.4865 39.8913C11.4865 39.7827 11.3997 39.7465 11.3202 39.8261Z" fill="black" />
  <path d="M11.1249 40.0722C11.1249 40.1084 11.1611 40.1446 11.1972 40.1446C11.2406 40.1446 11.2696 40.1084 11.2696 40.0722C11.2696 40.0288 11.2406 39.9998 11.1972 39.9998C11.1611 39.9998 11.1249 40.0288 11.1249 40.0722Z" fill="black" />
  <path d="M11.5299 40.065C11.501 40.1011 11.5154 40.1518 11.5516 40.1735C11.5877 40.2025 11.6384 40.188 11.6601 40.1518C11.689 40.1156 11.6745 40.065 11.6384 40.0432C11.6022 40.0143 11.5516 40.0288 11.5299 40.065Z" fill="black" />
  <path d="M11.9638 40.065C11.9348 40.1011 11.9493 40.1518 11.9855 40.1735C12.0216 40.2025 12.0722 40.188 12.0939 40.1518C12.1229 40.1156 12.1084 40.065 12.0722 40.0432C12.0361 40.0143 11.9855 40.0288 11.9638 40.065Z" fill="black" />
  <path d="M12.5712 40.2169C12.5134 40.2531 12.4844 40.2966 12.4989 40.3183C12.5206 40.3328 12.6001 40.3038 12.6725 40.2459C12.8315 40.1373 12.7448 40.1084 12.5712 40.2169Z" fill="black" />
  <path d="M11.3419 40.2893C11.3419 40.3255 11.378 40.3617 11.4142 40.3617C11.4576 40.3617 11.4865 40.3255 11.4865 40.2893C11.4865 40.2459 11.4576 40.2169 11.4142 40.2169C11.378 40.2169 11.3419 40.2459 11.3419 40.2893Z" fill="black" />
  <path d="M11.7396 40.2893C11.7179 40.3255 11.7468 40.3617 11.8047 40.3617C11.8698 40.3617 11.9204 40.3255 11.9204 40.2893C11.9204 40.2459 11.8915 40.2169 11.8553 40.2169C11.8119 40.2169 11.7613 40.2459 11.7396 40.2893Z" fill="black" />
  <path d="M12.1373 40.2893C12.1373 40.3255 12.1735 40.3617 12.2096 40.3617C12.253 40.3617 12.282 40.3255 12.282 40.2893C12.282 40.2459 12.253 40.2169 12.2096 40.2169C12.1735 40.2169 12.1373 40.2459 12.1373 40.2893Z" fill="black" />
  <path d="M11.5227 40.4413C11.4503 40.5499 11.5443 40.6223 11.6384 40.5282C11.689 40.4775 11.689 40.4341 11.6456 40.4051C11.6022 40.3834 11.5443 40.3979 11.5227 40.4413Z" fill="black" />
  <path d="M12.752 40.4341C12.7303 40.4775 12.7592 40.4847 12.8171 40.463C12.9472 40.4124 12.9689 40.3617 12.8677 40.3617C12.8243 40.3617 12.7737 40.3906 12.752 40.4341Z" fill="black" />
  <path d="M11.9565 40.5065C11.9855 40.5499 12.0361 40.5644 12.0722 40.5426C12.1735 40.4775 12.1518 40.4341 12.0216 40.4341C11.9638 40.4341 11.9348 40.4703 11.9565 40.5065Z" fill="black" />
  <path d="M11.7758 40.6946C11.7758 40.7525 11.8119 40.7815 11.8481 40.7598C11.8915 40.7308 11.9059 40.6801 11.8842 40.644C11.8191 40.5426 11.7758 40.5644 11.7758 40.6946Z" fill="black" />
  <path d="M12.5351 40.6512C12.5134 40.6874 12.5278 40.7236 12.564 40.7236C12.6074 40.7236 12.6435 40.6874 12.6435 40.6512C12.6435 40.6078 12.6291 40.5788 12.6146 40.5788C12.5929 40.5788 12.5568 40.6078 12.5351 40.6512Z" fill="black" />
  <path d="M20.1353 34.6875C20.1136 34.7454 20.063 34.7743 20.0196 34.7526C19.9834 34.7309 19.9473 34.7381 19.9473 34.7671C19.9473 34.8539 20.1064 35.0059 20.2004 35.0059C20.2365 35.0059 20.2221 34.9697 20.1642 34.9335C20.0702 34.8684 20.0702 34.8467 20.1859 34.7598C20.3161 34.6585 20.345 34.5717 20.2438 34.5717C20.2076 34.5717 20.157 34.6223 20.1353 34.6875Z" fill="black" />
  <path d="M8.10218 34.5138C8.00817 34.6078 7.98648 34.7888 8.07325 34.7888C8.10218 34.7888 8.16726 34.7236 8.21065 34.644C8.31189 34.4848 8.22511 34.3907 8.10218 34.5138Z" fill="black" />
  <path d="M48.4898 7.4091C48.4609 7.43082 48.4392 7.51043 48.4392 7.57557C48.4392 7.78546 48.0125 8.55988 47.745 8.8349C47.6076 8.97965 47.3256 9.18231 47.1303 9.28363C46.841 9.42838 46.7687 9.49352 46.7904 9.6238C46.8049 9.73236 46.8917 9.7975 47.0652 9.84816C47.2171 9.89159 47.4846 10.087 47.7233 10.3258C48.0993 10.7022 48.1933 10.8614 48.4754 11.6793C48.5404 11.8602 48.714 11.7734 48.7646 11.5417C48.9237 10.818 49.4371 10.1521 50.0301 9.89882C50.5002 9.69617 50.5146 9.51523 50.0807 9.32706C49.9072 9.24744 49.6468 9.08098 49.5022 8.9507C49.2347 8.7191 48.8586 8.0243 48.7646 7.59004C48.7212 7.37292 48.5983 7.2933 48.4898 7.4091Z" fill="black" />
  <path d="M12.5712 18.2944C12.5712 18.3306 12.6074 18.3451 12.6435 18.3233C12.6869 18.3016 12.7158 18.2654 12.7158 18.2437C12.7158 18.2293 12.6869 18.2148 12.6435 18.2148C12.6074 18.2148 12.5712 18.251 12.5712 18.2944Z" fill="black" />
  <path d="M12.1012 19.3728C12.0795 19.409 12.0939 19.4452 12.1301 19.4452C12.1735 19.4452 12.2096 19.409 12.2096 19.3728C12.2096 19.3294 12.1952 19.3004 12.1807 19.3004C12.159 19.3004 12.1229 19.3294 12.1012 19.3728Z" fill="black" />
  <path d="M12.065 19.7347C12.065 19.7709 12.1012 19.807 12.1373 19.807C12.1807 19.807 12.2096 19.7709 12.2096 19.7347C12.2096 19.6912 12.1807 19.6623 12.1373 19.6623C12.1012 19.6623 12.065 19.6912 12.065 19.7347Z" fill="black" />
  <path d="M12.47 19.7853C12.4266 19.8867 12.4338 19.8939 12.5061 19.8288C12.5567 19.7781 12.5784 19.7202 12.5567 19.6985C12.5351 19.6768 12.4917 19.713 12.47 19.7853Z" fill="black" />
  <path d="M11.9927 20.0965C11.9927 20.1327 12.0433 20.1689 12.1084 20.1689C12.1663 20.1689 12.1952 20.1327 12.1735 20.0965C12.1518 20.0531 12.1012 20.0242 12.0578 20.0242C12.0216 20.0242 11.9927 20.0531 11.9927 20.0965Z" fill="black" />
  <path d="M11.4865 22.4126C11.4865 22.4487 11.5227 22.4849 11.5588 22.4849C11.6022 22.4849 11.6311 22.4487 11.6311 22.4126C11.6311 22.3691 11.6022 22.3402 11.5588 22.3402C11.5227 22.3402 11.4865 22.3691 11.4865 22.4126Z" fill="black" />
  <path d="M11.8842 22.6297C11.9059 22.6659 11.9421 22.7021 11.9638 22.7021C11.9782 22.7021 11.9927 22.6659 11.9927 22.6297C11.9927 22.5863 11.9565 22.5573 11.9132 22.5573C11.877 22.5573 11.8625 22.5863 11.8842 22.6297Z" fill="black" />
  <path d="M11.4503 23.0639C11.4286 23.1001 11.4431 23.1363 11.4793 23.1363C11.5227 23.1363 11.5588 23.1001 11.5588 23.0639C11.5588 23.0205 11.5444 22.9916 11.5299 22.9916C11.5082 22.9916 11.472 23.0205 11.4503 23.0639Z" fill="black" />
  <path d="M12.3615 23.4692C12.3615 23.5489 12.3832 23.5706 12.4049 23.5127C12.4266 23.462 12.4194 23.3969 12.3977 23.3752C12.376 23.3462 12.3543 23.3896 12.3615 23.4692Z" fill="black" />
  <path d="M11.5227 23.7153C11.501 23.7515 11.5154 23.7877 11.5516 23.7877C11.595 23.7877 11.6311 23.7515 11.6311 23.7153C11.6311 23.6719 11.6167 23.6429 11.6022 23.6429C11.5805 23.6429 11.5443 23.6719 11.5227 23.7153Z" fill="black" />
  <path d="M11.4142 23.9614C11.4142 23.9759 11.4648 24.0265 11.5227 24.0772C11.5877 24.1279 11.6311 24.1351 11.6311 24.0917C11.6311 24.0555 11.5805 24.0048 11.5227 23.9759C11.4648 23.9542 11.4142 23.9469 11.4142 23.9614Z" fill="black" />
  <path d="M11.8842 24.4391C11.8625 24.4753 11.877 24.5114 11.9132 24.5114C11.9565 24.5114 11.9927 24.4753 11.9927 24.4391C11.9927 24.3956 11.9782 24.3667 11.9638 24.3667C11.9421 24.3667 11.9059 24.3956 11.8842 24.4391Z" fill="black" />
  <path d="M12.1229 24.6345C12.1735 24.6562 12.2386 24.649 12.2603 24.6273C12.2892 24.6055 12.2458 24.5838 12.1663 24.5911C12.0867 24.5911 12.065 24.6128 12.1229 24.6345Z" fill="black" />
  <path d="M12.1735 24.9457C12.1518 24.9819 12.1663 25.0181 12.2024 25.0181C12.2458 25.0181 12.282 24.9819 12.282 24.9457C12.282 24.9023 12.2675 24.8733 12.253 24.8733C12.2313 24.8733 12.1952 24.9023 12.1735 24.9457Z" fill="black" />
  <path d="M12.4989 25.2063C12.4989 25.2642 12.5351 25.2931 12.5712 25.2714C12.6146 25.2424 12.6291 25.1918 12.6074 25.1556C12.5423 25.0543 12.4989 25.076 12.4989 25.2063Z" fill="black" />
  <path d="M12.065 25.228C12.065 25.2714 12.1012 25.3221 12.1373 25.3438C12.1807 25.3655 12.2096 25.3365 12.2096 25.2786C12.2096 25.2135 12.1807 25.1628 12.1373 25.1628C12.1012 25.1628 12.065 25.1918 12.065 25.228Z" fill="black" />
  <path d="M12.3543 25.4523C12.3543 25.4885 12.3904 25.5247 12.4266 25.5247C12.47 25.5247 12.4989 25.4885 12.4989 25.4523C12.4989 25.4089 12.47 25.38 12.4266 25.38C12.3904 25.38 12.3543 25.4089 12.3543 25.4523Z" fill="black" />
  <path d="M6.54019 26.5886C6.4968 26.69 6.50403 26.6972 6.57634 26.6321C6.62696 26.5814 6.64866 26.5235 6.62696 26.5018C6.60527 26.4801 6.56188 26.5163 6.54019 26.5886Z" fill="black" />
  <path d="M6.82944 26.6321C6.85114 26.7044 6.89453 26.7406 6.91622 26.7189C6.93791 26.6972 6.91622 26.6393 6.8656 26.5886C6.79329 26.5235 6.78605 26.5307 6.82944 26.6321Z" fill="black" />
  <path d="M6.64143 26.8347C6.64143 26.8709 6.67759 26.8854 6.71374 26.8637C6.75713 26.8419 6.78606 26.8058 6.78606 26.784C6.78606 26.7696 6.75713 26.7551 6.71374 26.7551C6.67759 26.7551 6.64143 26.7913 6.64143 26.8347Z" fill="black" />
  <path d="M7.29226 27.3413C7.29226 27.3775 7.32842 27.392 7.36457 27.3703C7.40796 27.3486 7.43689 27.3124 7.43689 27.2907C7.43689 27.2762 7.40796 27.2617 7.36457 27.2617C7.32842 27.2617 7.29226 27.2979 7.29226 27.3413Z" fill="black" />
  <path d="M6.85837 27.4137C6.85837 27.4499 6.89453 27.4644 6.93069 27.4427C6.97407 27.421 7.003 27.3848 7.003 27.3631C7.003 27.3486 6.97407 27.3341 6.93069 27.3341C6.89453 27.3341 6.85837 27.3703 6.85837 27.4137Z" fill="black" />
  <path d="M31.0837 34.0723C31.0837 34.1085 31.1199 34.1229 31.156 34.1012C31.1994 34.0795 31.2283 34.0433 31.2283 34.0216C31.2283 34.0071 31.1994 33.9927 31.156 33.9927C31.1199 33.9927 31.0837 34.0288 31.0837 34.0723Z" fill="black" />
  <path d="M30.7583 34.1374C30.78 34.1736 30.8162 34.2098 30.8378 34.2098C30.8523 34.2098 30.8668 34.1736 30.8668 34.1374C30.8668 34.094 30.8306 34.065 30.7872 34.065C30.7511 34.065 30.7366 34.094 30.7583 34.1374Z" fill="black" />
  <path d="M30.5052 34.3545C30.5052 34.3907 30.5414 34.4269 30.5775 34.4269C30.6209 34.4269 30.6498 34.3907 30.6498 34.3545C30.6498 34.3111 30.6209 34.2822 30.5775 34.2822C30.5414 34.2822 30.5052 34.3111 30.5052 34.3545Z" fill="black" />
  <path d="M31.1199 34.4993C31.0982 34.5355 31.1271 34.5717 31.185 34.5717C31.25 34.5717 31.3007 34.5355 31.3007 34.4993C31.3007 34.4559 31.2717 34.4269 31.2356 34.4269C31.1922 34.4269 31.1416 34.4559 31.1199 34.4993Z" fill="black" />
  <path d="M30.7221 34.5717C30.7221 34.6078 30.7583 34.644 30.7945 34.644C30.8379 34.644 30.8668 34.6078 30.8668 34.5717C30.8668 34.5282 30.8379 34.4993 30.7945 34.4993C30.7583 34.4993 30.7221 34.5282 30.7221 34.5717Z" fill="black" />
  <path d="M30.686 35.0059C30.6643 35.0421 30.6788 35.0783 30.7149 35.0783C30.7583 35.0783 30.7945 35.0421 30.7945 35.0059C30.7945 34.9625 30.78 34.9335 30.7655 34.9335C30.7438 34.9335 30.7077 34.9625 30.686 35.0059Z" fill="black" />
  <path d="M29.3843 35.0783C29.406 35.1145 29.4422 35.1507 29.4639 35.1507C29.4783 35.1507 29.4928 35.1145 29.4928 35.0783C29.4928 35.0349 29.4566 35.0059 29.4132 35.0059C29.3771 35.0059 29.3626 35.0349 29.3843 35.0783Z" fill="black" />
  <path d="M30.2521 35.0783C30.2738 35.1145 30.3099 35.1507 30.3316 35.1507C30.3461 35.1507 30.3606 35.1145 30.3606 35.0783C30.3606 35.0349 30.3244 35.0059 30.281 35.0059C30.2449 35.0059 30.2304 35.0349 30.2521 35.0783Z" fill="black" />
  <path d="M29.6157 35.2013C29.5868 35.223 29.5651 35.2809 29.5651 35.3244C29.5651 35.3678 29.6013 35.3605 29.6519 35.3099C29.6953 35.2665 29.717 35.2086 29.7025 35.1868C29.6808 35.1651 29.6374 35.1724 29.6157 35.2013Z" fill="black" />
  <path d="M29.999 35.223C29.999 35.2592 30.0352 35.2954 30.0786 35.2954C30.1147 35.2954 30.1292 35.2592 30.1075 35.223C30.0858 35.1796 30.0496 35.1507 30.0279 35.1507C30.0135 35.1507 29.999 35.1796 29.999 35.223Z" fill="black" />
  <path d="M30.469 35.223C30.4473 35.2592 30.4618 35.2954 30.498 35.2954C30.5414 35.2954 30.5775 35.2592 30.5775 35.223C30.5775 35.1796 30.563 35.1507 30.5486 35.1507C30.5269 35.1507 30.4907 35.1796 30.469 35.223Z" fill="black" />
  <path d="M28.9143 35.4402C28.9143 35.4763 28.9504 35.5125 28.9938 35.5125C29.03 35.5125 29.0445 35.4763 29.0228 35.4402C29.0011 35.3967 28.9649 35.3678 28.9432 35.3678C28.9287 35.3678 28.9143 35.3967 28.9143 35.4402Z" fill="black" />
  <path d="M29.3988 35.4184C29.3699 35.4402 29.3482 35.4981 29.3482 35.5415C29.3482 35.5849 29.3843 35.5777 29.4349 35.527C29.4783 35.4836 29.5 35.4257 29.4856 35.404C29.4639 35.3823 29.4205 35.3895 29.3988 35.4184Z" fill="black" />
  <path d="M30.2159 35.4402C30.2159 35.4763 30.2521 35.5125 30.2955 35.5125C30.3317 35.5125 30.3461 35.4763 30.3244 35.4402C30.3027 35.3967 30.2666 35.3678 30.2449 35.3678C30.2304 35.3678 30.2159 35.3967 30.2159 35.4402Z" fill="black" />
  <path d="M29.0951 35.6573C29.0734 35.6935 29.1023 35.7297 29.1674 35.7297C29.2325 35.7297 29.2614 35.6935 29.2397 35.6573C29.218 35.6139 29.1819 35.5849 29.1674 35.5849C29.1529 35.5849 29.1168 35.6139 29.0951 35.6573Z" fill="black" />
  <path d="M29.9628 35.6573C29.9412 35.6935 29.9556 35.7297 29.9918 35.7297C30.0352 35.7297 30.0713 35.6935 30.0713 35.6573C30.0713 35.6139 30.0569 35.5849 30.0424 35.5849C30.0207 35.5849 29.9845 35.6139 29.9628 35.6573Z" fill="black" />
  <path d="M28.9143 35.8744C28.9143 35.9106 28.9504 35.9468 28.9866 35.9468C29.03 35.9468 29.0589 35.9106 29.0589 35.8744C29.0589 35.831 29.03 35.802 28.9866 35.802C28.9504 35.802 28.9143 35.831 28.9143 35.8744Z" fill="black" />
  <path d="M29.312 35.8744C29.2903 35.9106 29.3048 35.9468 29.3409 35.9468C29.3843 35.9468 29.4205 35.9106 29.4205 35.8744C29.4205 35.831 29.406 35.802 29.3916 35.802C29.3699 35.802 29.3337 35.831 29.312 35.8744Z" fill="black" />
  <path d="M29.7459 35.8744C29.7242 35.9106 29.7387 35.9468 29.7748 35.9468C29.8182 35.9468 29.8544 35.9106 29.8544 35.8744C29.8544 35.831 29.8399 35.802 29.8254 35.802C29.8038 35.802 29.7676 35.831 29.7459 35.8744Z" fill="black" />
  <path d="M28.4804 35.954C28.4804 35.9902 28.5166 36.0047 28.5527 35.983C28.5961 35.9613 28.625 35.9251 28.625 35.9034C28.625 35.8889 28.5961 35.8744 28.5527 35.8744C28.5166 35.8744 28.4804 35.9106 28.4804 35.954Z" fill="black" />
  <path d="M28.6973 36.135C28.6973 36.1929 28.7335 36.2218 28.7697 36.2001C28.813 36.1712 28.8275 36.1205 28.8058 36.0843C28.7407 35.983 28.6973 36.0047 28.6973 36.135Z" fill="black" />
  <path d="M29.0951 36.0915C29.0734 36.1277 29.0878 36.1639 29.124 36.1639C29.1674 36.1639 29.2035 36.1277 29.2035 36.0915C29.2035 36.0481 29.1891 36.0192 29.1746 36.0192C29.1529 36.0192 29.1168 36.0481 29.0951 36.0915Z" fill="black" />
  <path d="M29.4928 36.0915C29.4928 36.1277 29.529 36.1639 29.5651 36.1639C29.6085 36.1639 29.6374 36.1277 29.6374 36.0915C29.6374 36.0481 29.6085 36.0192 29.5651 36.0192C29.529 36.0192 29.4928 36.0481 29.4928 36.0915Z" fill="black" />
  <path d="M29.9628 36.0915C29.9845 36.1277 30.0207 36.1639 30.0424 36.1639C30.0569 36.1639 30.0713 36.1277 30.0713 36.0915C30.0713 36.0481 30.0352 36.0192 29.9918 36.0192C29.9556 36.0192 29.9412 36.0481 29.9628 36.0915Z" fill="black" />
  <path d="M28.3358 36.2435C28.3358 36.2797 28.3719 36.2942 28.4081 36.2725C28.4515 36.2508 28.4804 36.2146 28.4804 36.1929C28.4804 36.1784 28.4515 36.1639 28.4081 36.1639C28.3719 36.1639 28.3358 36.2001 28.3358 36.2435Z" fill="black" />
  <path d="M29.2759 36.3087C29.2759 36.3449 29.312 36.381 29.3482 36.381C29.3916 36.381 29.4205 36.3449 29.4205 36.3087C29.4205 36.2652 29.3916 36.2363 29.3482 36.2363C29.312 36.2363 29.2759 36.2652 29.2759 36.3087Z" fill="black" />
  <path d="M29.7097 36.3159C29.7097 36.3521 29.7459 36.3666 29.7821 36.3449C29.8254 36.3231 29.8544 36.2869 29.8544 36.2652C29.8544 36.2508 29.8254 36.2363 29.7821 36.2363C29.7459 36.2363 29.7097 36.2725 29.7097 36.3159Z" fill="black" />
  <path d="M28.5166 36.381C28.4949 36.4172 28.5093 36.4534 28.5455 36.4534C28.5889 36.4534 28.625 36.4172 28.625 36.381C28.625 36.3376 28.6106 36.3087 28.5961 36.3087C28.5744 36.3087 28.5382 36.3376 28.5166 36.381Z" fill="black" />
  <path d="M28.155 36.4534C28.1767 36.4896 28.2128 36.5258 28.2345 36.5258C28.249 36.5258 28.2635 36.4896 28.2635 36.4534C28.2635 36.41 28.2273 36.381 28.1839 36.381C28.1477 36.381 28.1333 36.41 28.155 36.4534Z" fill="black" />
  <path d="M29.0951 36.5258C29.0734 36.562 29.0878 36.5982 29.124 36.5982C29.1674 36.5982 29.2035 36.562 29.2035 36.5258C29.2035 36.4824 29.1891 36.4534 29.1746 36.4534C29.1529 36.4534 29.1168 36.4824 29.0951 36.5258Z" fill="black" />
  <path d="M28.6973 36.6054C28.6973 36.6416 28.7335 36.6561 28.7697 36.6344C28.813 36.6126 28.842 36.5765 28.842 36.5547C28.842 36.5403 28.813 36.5258 28.7697 36.5258C28.7335 36.5258 28.6973 36.562 28.6973 36.6054Z" fill="black" />
  <path d="M28.9143 36.7502C28.9143 36.7863 28.9504 36.8008 28.9866 36.7791C29.03 36.7574 29.0589 36.7212 29.0589 36.6995C29.0589 36.685 29.03 36.6705 28.9866 36.6705C28.9504 36.6705 28.9143 36.7067 28.9143 36.7502Z" fill="black" />
  <path d="M28.5166 36.8153C28.4949 36.8515 28.5093 36.8877 28.5455 36.8877C28.5889 36.8877 28.625 36.8515 28.625 36.8153C28.625 36.7719 28.6106 36.7429 28.5961 36.7429C28.5744 36.7429 28.5382 36.7719 28.5166 36.8153Z" fill="black" />
  <path d="M28.155 36.8877C28.1767 36.9239 28.2128 36.96 28.2345 36.96C28.249 36.96 28.2635 36.9239 28.2635 36.8877C28.2635 36.8442 28.2273 36.8153 28.1839 36.8153C28.1477 36.8153 28.1333 36.8442 28.155 36.8877Z" fill="black" />
  <path d="M28.6973 36.96C28.6973 36.9962 28.7335 37.0324 28.7697 37.0324C28.813 37.0324 28.842 36.9962 28.842 36.96C28.842 36.9166 28.813 36.8877 28.7697 36.8877C28.7335 36.8877 28.6973 36.9166 28.6973 36.96Z" fill="black" />
  <path d="M27.7573 37.0758C27.6922 37.1482 27.6922 37.1772 27.75 37.1772C27.7934 37.1772 27.8296 37.141 27.8296 37.0976C27.8296 37.0614 27.8657 37.0469 27.9091 37.0686C27.9597 37.1048 27.9453 37.1772 27.873 37.293C27.7428 37.4884 27.7283 37.5391 27.8223 37.5391C27.8585 37.5391 27.9091 37.4594 27.9308 37.3581C27.9597 37.2568 28.0104 37.1917 28.0465 37.2134C28.0827 37.2351 28.0971 37.2061 28.0754 37.1482C28.0176 36.9962 27.8513 36.9528 27.7573 37.0758Z" fill="black" />
  <path d="M28.5166 37.1772C28.4949 37.2134 28.5093 37.2495 28.5455 37.2495C28.5889 37.2495 28.625 37.2134 28.625 37.1772C28.625 37.1338 28.6106 37.1048 28.5961 37.1048C28.5744 37.1048 28.5382 37.1338 28.5166 37.1772Z" fill="black" />
  <path d="M27.5548 37.4015C27.4174 37.6187 27.4752 37.6331 27.6343 37.4233C27.7066 37.3292 27.7356 37.2495 27.7066 37.2495C27.6705 37.2495 27.6054 37.3147 27.5548 37.4015Z" fill="black" />
  <path d="M28.1911 37.4015C28.1911 37.4377 28.2273 37.4522 28.2635 37.4305C28.3068 37.4088 28.3358 37.3726 28.3358 37.3509C28.3358 37.3364 28.3068 37.3219 28.2635 37.3219C28.2273 37.3219 28.1911 37.3581 28.1911 37.4015Z" fill="black" />
  <path d="M27.3234 37.7562C27.3234 37.7924 27.3595 37.8286 27.3957 37.8286C27.4391 37.8286 27.468 37.7924 27.468 37.7562C27.468 37.7128 27.4391 37.6838 27.3957 37.6838C27.3595 37.6838 27.3234 37.7128 27.3234 37.7562Z" fill="black" />
  <path d="M27.1787 37.9733C27.1787 38.0095 27.2149 38.0457 27.2583 38.0457C27.2944 38.0457 27.3089 38.0095 27.2872 37.9733C27.2655 37.9299 27.2294 37.9009 27.2077 37.9009C27.1932 37.9009 27.1787 37.9299 27.1787 37.9733Z" fill="black" />
  <path d="M26.9979 38.1904C26.9763 38.2266 26.9907 38.2628 27.0269 38.2628C27.0703 38.2628 27.1064 38.2266 27.1064 38.1904C27.1064 38.147 27.092 38.1181 27.0775 38.1181C27.0558 38.1181 27.0196 38.147 26.9979 38.1904Z" fill="black" />
  <path d="M26.7449 38.4076C26.7449 38.4437 26.781 38.4799 26.8244 38.4799C26.8606 38.4799 26.875 38.4437 26.8533 38.4076C26.8316 38.3641 26.7955 38.3352 26.7738 38.3352C26.7593 38.3352 26.7449 38.3641 26.7449 38.4076Z" fill="black" />
  <path d="M27.1787 38.4076C27.1787 38.4437 27.2149 38.4799 27.2511 38.4799C27.2944 38.4799 27.3234 38.4437 27.3234 38.4076C27.3234 38.3641 27.2944 38.3352 27.2511 38.3352C27.2149 38.3352 27.1787 38.3641 27.1787 38.4076Z" fill="black" />
  <path d="M26.9979 38.6247C27.0196 38.6609 27.0558 38.6971 27.0775 38.6971C27.092 38.6971 27.1064 38.6609 27.1064 38.6247C27.1064 38.5813 27.0703 38.5523 27.0269 38.5523C26.9907 38.5523 26.9763 38.5813 26.9979 38.6247Z" fill="black" />
  <path d="M27.3017 38.849C27.3523 38.8997 27.4101 38.9214 27.4318 38.8997C27.4535 38.878 27.4174 38.8346 27.3451 38.8129C27.2438 38.7694 27.2366 38.7767 27.3017 38.849Z" fill="black" />
  <path d="M26.7449 38.9142C26.7449 38.9504 26.7738 38.9866 26.8099 38.9866C26.8533 38.9866 26.9039 38.9504 26.9256 38.9142C26.9473 38.8708 26.9184 38.8418 26.8606 38.8418C26.7955 38.8418 26.7449 38.8708 26.7449 38.9142Z" fill="black" />
  <path d="M26.3833 39.0589C26.3833 39.0951 26.4194 39.1313 26.4556 39.1313C26.499 39.1313 26.5279 39.0951 26.5279 39.0589C26.5279 39.0155 26.499 38.9866 26.4556 38.9866C26.4194 38.9866 26.3833 39.0155 26.3833 39.0589Z" fill="black" />
  <path d="M27.0847 39.0372C27.0558 39.0589 27.0341 39.1168 27.0341 39.1603C27.0341 39.2037 27.0703 39.1964 27.1209 39.1458C27.1643 39.1024 27.186 39.0445 27.1715 39.0227C27.1498 39.001 27.1064 39.0083 27.0847 39.0372Z" fill="black" />
  <path d="M26.6436 39.1241C26.6147 39.1747 26.6075 39.2326 26.6292 39.2544C26.6942 39.3195 26.7665 39.2254 26.7304 39.1241C26.7015 39.0445 26.687 39.0445 26.6436 39.1241Z" fill="black" />
  <path d="M26.8533 39.2688C26.8316 39.305 26.8461 39.3557 26.8895 39.3846C26.9256 39.4063 26.9618 39.3774 26.9618 39.3195C26.9618 39.1892 26.9184 39.1675 26.8533 39.2688Z" fill="black" />
  <path d="M26.4556 39.4932C26.4556 39.5294 26.4918 39.5656 26.5351 39.5656C26.5713 39.5656 26.5858 39.5294 26.5641 39.4932C26.5424 39.4498 26.5062 39.4208 26.4845 39.4208C26.4701 39.4208 26.4556 39.4498 26.4556 39.4932Z" fill="black" />
  <path d="M27.1426 39.4932C27.1209 39.5294 27.1353 39.5656 27.1715 39.5656C27.2149 39.5656 27.2511 39.5294 27.2511 39.4932C27.2511 39.4498 27.2366 39.4208 27.2221 39.4208C27.2004 39.4208 27.1643 39.4498 27.1426 39.4932Z" fill="black" />
</svg>